<svg width="54" height="51" viewBox="0 0 54 51" fill="none" xmlns="http://www.w3.org/2000/svg">
<path d="M20.5 25.5C20.5 32.4928 19.332 38.8002 17.4623 43.3408C16.527 45.6124 15.4259 47.4177 14.2288 48.6473C13.0333 49.8754 11.7734 50.5 10.5 50.5C9.22661 50.5 7.96673 49.8754 6.77119 48.6473C5.57411 47.4177 4.47305 45.6124 3.53772 43.3408C1.66803 38.8002 0.5 32.4928 0.5 25.5C0.5 18.5072 1.66803 12.1998 3.53772 7.65915C4.47305 5.38764 5.57411 3.58233 6.77119 2.35269C7.96673 1.12464 9.22661 0.5 10.5 0.5C11.7734 0.5 13.0333 1.12464 14.2288 2.35269C15.4259 3.58233 16.527 5.38764 17.4623 7.65915C19.332 12.1998 20.5 18.5072 20.5 25.5Z" fill="none" stroke="#3B4443"/>
<path d="M31.5 25.5C31.5 32.4928 30.332 38.8002 28.4623 43.3408C27.527 45.6124 26.4259 47.4177 25.2288 48.6473C24.0333 49.8754 22.7734 50.5 21.5 50.5C20.2266 50.5 18.9667 49.8754 17.7712 48.6473C16.5741 47.4177 15.473 45.6124 14.5377 43.3408C12.668 38.8002 11.5 32.4928 11.5 25.5C11.5 18.5072 12.668 12.1998 14.5377 7.65915C15.473 5.38764 16.5741 3.58233 17.7712 2.35269C18.9667 1.12464 20.2266 0.5 21.5 0.5C22.7734 0.5 24.0333 1.12464 25.2288 2.35269C26.4259 3.58233 27.527 5.38764 28.4623 7.65915C30.332 12.1998 31.5 18.5072 31.5 25.5Z" fill="none" stroke="#3B4443"/>
<path d="M42.5 25.5C42.5 32.4928 41.332 38.8002 39.4623 43.3408C38.527 45.6124 37.4259 47.4177 36.2288 48.6473C35.0333 49.8754 33.7734 50.5 32.5 50.5C31.2266 50.5 29.9667 49.8754 28.7712 48.6473C27.5741 47.4177 26.473 45.6124 25.5377 43.3408C23.668 38.8002 22.5 32.4928 22.5 25.5C22.5 18.5072 23.668 12.1998 25.5377 7.65915C26.473 5.38764 27.5741 3.58233 28.7712 2.35269C29.9667 1.12464 31.2266 0.5 32.5 0.5C33.7734 0.5 35.0333 1.12464 36.2288 2.35269C37.4259 3.58233 38.527 5.38764 39.4623 7.65915C41.332 12.1998 42.5 18.5072 42.5 25.5Z" fill="none" stroke="#3B4443"/>
<path d="M53.5 25.5C53.5 32.4928 52.332 38.8002 50.4623 43.3408C49.527 45.6124 48.4259 47.4177 47.2288 48.6473C46.0333 49.8754 44.7734 50.5 43.5 50.5C42.2266 50.5 40.9667 49.8754 39.7712 48.6473C38.5741 47.4177 37.473 45.6124 36.5377 43.3408C34.668 38.8002 33.5 32.4928 33.5 25.5C33.5 18.5072 34.668 12.1998 36.5377 7.65915C37.473 5.38764 38.5741 3.58233 39.7712 2.35269C40.9667 1.12464 42.2266 0.5 43.5 0.5C44.7734 0.5 46.0333 1.12464 47.2288 2.35269C48.4259 3.58233 49.527 5.38764 50.4623 7.65915C52.332 12.1998 53.5 18.5072 53.5 25.5Z" fill="none" stroke="#3B4443"/>
</svg>
