<svg width="24" height="22" viewBox="0 0 24 22" fill="none" xmlns="http://www.w3.org/2000/svg">
<path d="M3.38406 16.4519C3.20613 16.448 3.03427 16.3864 2.89427 16.2765C2.75427 16.1667 2.65369 16.0143 2.60763 15.8424L1.64961 12.267C1.60354 12.0951 1.61448 11.9129 1.68078 11.7477C1.74707 11.5826 1.86515 11.4434 2.01729 11.351L18.0599 1.30428C18.169 1.23802 18.2921 1.19808 18.4194 1.18763C18.5467 1.17717 18.6746 1.1965 18.7931 1.24406C18.9116 1.29163 19.0174 1.36614 19.1022 1.46168C19.1869 1.55722 19.2482 1.67118 19.2813 1.79453L23.1133 16.096C23.1464 16.2194 23.1503 16.3487 23.1247 16.4738C23.0991 16.5989 23.0447 16.7164 22.9658 16.8168C22.887 16.9173 22.7858 16.998 22.6704 17.0526C22.5549 17.1071 22.4284 17.1341 22.3007 17.1313L3.38406 16.4519Z" stroke="#3B4443" stroke-linecap="round" stroke-linejoin="round"/>
<path d="M7.06411 16.5835L8.01734 20.141C8.0738 20.3518 8.21166 20.5314 8.40059 20.6405C8.58952 20.7496 8.81404 20.7791 9.02476 20.7227L12.2029 19.8711C12.4136 19.8146 12.5933 19.6768 12.7023 19.4878C12.8114 19.2989 12.841 19.0744 12.7845 18.8637L9.51367 6.65674" stroke="#3B4443" stroke-linecap="round" stroke-linejoin="round"/>
</svg>
