<svg width="23" height="23" viewBox="0 0 23 23" fill="none" xmlns="http://www.w3.org/2000/svg">
<path d="M19.4062 5.75H3.59375C3.1968 5.75 2.875 6.0718 2.875 6.46875V17.9688C2.875 18.3657 3.1968 18.6875 3.59375 18.6875H19.4062C19.8032 18.6875 20.125 18.3657 20.125 17.9688V6.46875C20.125 6.0718 19.8032 5.75 19.4062 5.75Z" stroke="#3B4443" stroke-width="1.06481" stroke-linecap="round" stroke-linejoin="round"/>
<path d="M15.0938 5.75V4.3125C15.0938 3.93125 14.9423 3.56562 14.6727 3.29603C14.4031 3.02645 14.0375 2.875 13.6562 2.875H9.34375C8.9625 2.875 8.59687 3.02645 8.32728 3.29603C8.0577 3.56562 7.90625 3.93125 7.90625 4.3125V5.75" stroke="#3B4443" stroke-width="1.06481" stroke-linecap="round" stroke-linejoin="round"/>
<path d="M20.125 10.6299C17.5039 12.1464 14.5282 12.9427 11.5 12.938C8.47187 12.9428 5.4963 12.1468 2.875 10.6308" stroke="#3B4443" stroke-width="1.06481" stroke-linecap="round" stroke-linejoin="round"/>
<path d="M10.0625 10.0625H12.9375" stroke="#3B4443" stroke-width="1.06481" stroke-linecap="round" stroke-linejoin="round"/>
</svg>
