<svg width="22" height="22" viewBox="0 0 22 22" fill="none" xmlns="http://www.w3.org/2000/svg">
<path d="M11.6875 12.375C13.2063 12.375 14.4375 11.1438 14.4375 9.625C14.4375 8.10622 13.2063 6.875 11.6875 6.875C10.1687 6.875 8.9375 8.10622 8.9375 9.625C8.9375 11.1438 10.1687 12.375 11.6875 12.375Z" stroke="#3B4443" stroke-width="1.04762" stroke-linecap="round" stroke-linejoin="round"/>
<path d="M2.75 6.1875H4.8125" stroke="#3B4443" stroke-width="1.04762" stroke-linecap="round" stroke-linejoin="round"/>
<path d="M2.75 11H4.8125" stroke="#3B4443" stroke-width="1.04762" stroke-linecap="round" stroke-linejoin="round"/>
<path d="M2.75 15.8125H4.8125" stroke="#3B4443" stroke-width="1.04762" stroke-linecap="round" stroke-linejoin="round"/>
<path d="M7.5625 14.4375C8.04279 13.7971 8.66558 13.2773 9.38155 12.9194C10.0975 12.5614 10.887 12.375 11.6875 12.375C12.488 12.375 13.2775 12.5614 13.9934 12.9194C14.7094 13.2773 15.3322 13.7971 15.8125 14.4375" stroke="#3B4443" stroke-width="1.04762" stroke-linecap="round" stroke-linejoin="round"/>
<path d="M18.5625 18.5625V3.4375C18.5625 3.0578 18.2547 2.75 17.875 2.75L5.5 2.75C5.1203 2.75 4.8125 3.0578 4.8125 3.4375L4.8125 18.5625C4.8125 18.9422 5.1203 19.25 5.5 19.25H17.875C18.2547 19.25 18.5625 18.9422 18.5625 18.5625Z" stroke="#3B4443" stroke-width="1.04762" stroke-linecap="round" stroke-linejoin="round"/>
</svg>
