<svg width="52" height="52" viewBox="0 0 52 52" fill="none" xmlns="http://www.w3.org/2000/svg">
<path d="M26 0L27.9375 16.2597L35.9498 1.97913L31.5174 17.7426L44.3848 7.61522L34.2574 20.4826L50.0209 16.0502L35.7403 24.0625L52 26L35.7403 27.9375L50.0209 35.9498L34.2574 31.5174L44.3848 44.3848L31.5174 34.2574L35.9498 50.0209L27.9375 35.7403L26 52L24.0625 35.7403L16.0502 50.0209L20.4826 34.2574L7.61522 44.3848L17.7426 31.5174L1.97913 35.9498L16.2597 27.9375L0 26L16.2597 24.0625L1.97913 16.0502L17.7426 20.4826L7.61522 7.61522L20.4826 17.7426L16.0502 1.97913L24.0625 16.2597L26 0Z" fill="#C9A885"/>
</svg>
