<svg width="44" height="43" viewBox="0 0 44 43" fill="none" xmlns="http://www.w3.org/2000/svg">
<path d="M21.1021 27.9231C25.662 27.9231 29.3585 24.1462 29.3585 19.4872C29.3585 14.8281 25.662 11.0513 21.1021 11.0513C16.5422 11.0513 12.8457 14.8281 12.8457 19.4872C12.8457 24.1462 16.5422 27.9231 21.1021 27.9231Z" stroke="white" stroke-width="2" stroke-linecap="round" stroke-linejoin="round"/>
<path d="M7.82031 36.1795C9.0824 33.6955 11.0082 31.6092 13.3843 30.1518C15.7604 28.6945 18.4939 27.9231 21.2819 27.9231C24.0698 27.9231 26.8033 28.6945 29.1794 30.1518C31.5555 31.6092 33.4813 33.6955 34.7434 36.1795" stroke="white" stroke-width="2" stroke-linecap="round" stroke-linejoin="round"/>
<path d="M40.9263 17.7662C41.6336 21.9689 40.987 26.2877 39.0797 30.0989C37.1724 33.9102 34.1033 37.0166 30.3153 38.9698C26.5274 40.9229 22.2168 41.6217 18.0058 40.9652C13.7948 40.3086 9.90149 38.3308 6.88792 35.3172C3.87435 32.3036 1.89651 28.4103 1.23998 24.1993C0.583451 19.9884 1.28221 15.6777 3.23536 11.8898C5.18851 8.10186 8.29498 5.03268 12.1062 3.12541C15.9174 1.21815 20.2362 0.571492 24.439 1.27882" stroke="white" stroke-width="2" stroke-linecap="round" stroke-linejoin="round"/>
<path d="M32.9482 6.02569L36.2987 9.25646L42.9995 2.79492" stroke="white" stroke-width="2" stroke-linecap="round" stroke-linejoin="round"/>
</svg>
