<svg width="38" height="49" viewBox="0 0 38 49" fill="none" xmlns="http://www.w3.org/2000/svg">
<path d="M10.168 48H28.0046" stroke="white" stroke-width="2" stroke-linecap="round" stroke-linejoin="round"/>
<path d="M8.09508 33.5077C5.97469 31.8513 4.25723 29.7359 3.07172 27.3205C1.8862 24.905 1.26346 22.2524 1.25027 19.5617C1.19676 9.89425 8.99138 1.8477 18.6566 1.62474C22.4023 1.53401 26.0815 2.62515 29.1721 4.74334C32.2627 6.86153 34.6078 9.8992 35.8747 13.4253C37.1415 16.9515 37.2658 20.7871 36.2298 24.3878C35.1939 27.9886 33.0503 31.1716 30.1033 33.4854C29.4533 33.9894 28.9265 34.6348 28.563 35.3727C28.1995 36.1105 28.0087 36.9214 28.0052 37.7439V39.0817C28.0052 39.5547 27.8173 40.0084 27.4828 40.3429C27.1483 40.6774 26.6946 40.8653 26.2216 40.8653H11.9523C11.4792 40.8653 11.0255 40.6774 10.691 40.3429C10.3565 40.0084 10.1686 39.5547 10.1686 39.0817V37.7439C10.1677 36.9267 9.98055 36.1203 9.62125 35.3863C9.26194 34.6522 8.73999 34.0098 8.09508 33.5077Z" stroke="white" stroke-width="2" stroke-linecap="round" stroke-linejoin="round"/>
<path d="M20.8701 8.7594C25.3293 9.51077 29.0326 13.2186 29.7884 17.6777" stroke="white" stroke-width="2" stroke-linecap="round" stroke-linejoin="round"/>
</svg>
