<svg width="51" height="51" viewBox="0 0 51 51" fill="none" xmlns="http://www.w3.org/2000/svg">
<path d="M25.5 50C39.031 50 50 39.031 50 25.5C50 11.969 39.031 1 25.5 1C11.969 1 1 11.969 1 25.5C1 39.031 11.969 50 25.5 50Z" stroke="white" stroke-width="1.5" stroke-linecap="round" stroke-linejoin="round"/>
<path d="M35.7096 25.5C35.7096 41.8333 25.5013 50 25.5013 50C25.5013 50 15.293 41.8333 15.293 25.5C15.293 9.16667 25.5013 1 25.5013 1C25.5013 1 35.7096 9.16667 35.7096 25.5Z" stroke="white" stroke-width="1.5" stroke-linecap="round" stroke-linejoin="round"/>
<path d="M2.39258 17.3335H48.6057" stroke="white" stroke-width="1.5" stroke-linecap="round" stroke-linejoin="round"/>
<path d="M2.39258 33.6665H48.6057" stroke="white" stroke-width="1.5" stroke-linecap="round" stroke-linejoin="round"/>
</svg>
