<svg width="38" height="25" viewBox="0 0 38 25" fill="none" xmlns="http://www.w3.org/2000/svg">
<path d="M24.5063 22.2893C24.6252 22.4703 24.6926 22.6799 24.7015 22.8958C24.7104 23.1118 24.6603 23.3261 24.5566 23.5161C24.453 23.7062 24.2995 23.8649 24.1125 23.9755C23.9255 24.0861 23.7119 24.1445 23.4942 24.1445H1.20733C0.989648 24.1445 0.776019 24.0861 0.589008 23.9755C0.401997 23.8649 0.24855 23.7062 0.144878 23.5161C0.0412067 23.3261 -0.00883975 23.1118 2.64585e-05 22.8958C0.00889267 22.6799 0.0763423 22.4703 0.195249 22.2893C1.8963 19.6897 4.39838 17.7058 7.32813 16.6337C5.7085 15.5631 4.47886 14.0035 3.82105 12.1854C3.16324 10.3674 3.11218 8.38737 3.67542 6.53826C4.23867 4.68915 5.38631 3.06909 6.94864 1.91766C8.51096 0.766217 10.405 0.144531 12.3508 0.144531C14.2965 0.144531 16.1905 0.766217 17.7529 1.91766C19.3152 3.06909 20.4628 4.68915 21.0261 6.53826C21.5893 8.38737 21.5383 10.3674 20.8805 12.1854C20.2227 14.0035 18.993 15.5631 17.3734 16.6337C20.3031 17.7058 22.8052 19.6897 24.5063 22.2893ZM37.7856 22.2668C36.0841 19.6781 33.5876 17.7028 30.6663 16.6337C32.5784 15.3549 33.9278 13.4008 34.4398 11.169C34.9519 8.93728 34.5881 6.59568 33.4225 4.62084C32.257 2.64601 30.3773 1.18638 28.166 0.539067C25.9547 -0.108248 23.5781 0.105403 21.5199 1.13653C21.4412 1.17688 21.3724 1.23391 21.3183 1.30359C21.2643 1.37327 21.2264 1.45389 21.2072 1.53975C21.188 1.62561 21.1881 1.7146 21.2074 1.80043C21.2267 1.88625 21.2648 1.96681 21.319 2.0364C22.8494 3.93182 23.7284 6.26401 23.827 8.69135C23.9257 11.1187 23.2389 13.5136 21.8673 15.5253C21.7787 15.6568 21.7459 15.8177 21.7762 15.9731C21.8064 16.1284 21.8973 16.2656 22.0289 16.3547C23.8173 17.5939 25.3482 19.1639 26.538 20.9785C27.0178 21.7081 27.2138 22.5861 27.0893 23.4486C27.0753 23.5344 27.0803 23.6222 27.1038 23.706C27.1273 23.7897 27.1689 23.8673 27.2257 23.9335C27.2824 23.9997 27.353 24.0528 27.4325 24.0893C27.5119 24.1257 27.5985 24.1446 27.686 24.1445H36.7947C37.0608 24.1446 37.3195 24.0575 37.5306 23.8967C37.7417 23.7359 37.8935 23.5104 37.9624 23.2552C38.0044 23.0873 38.0103 22.9126 37.9799 22.7423C37.9495 22.572 37.8833 22.41 37.7856 22.2668Z" fill="#3B4443"/>
</svg>
