<svg width="31" height="33" viewBox="0 0 31 33" fill="none" xmlns="http://www.w3.org/2000/svg">
<path d="M0.0697269 25.5181C0.0697269 24.3608 0.304102 23.3574 0.772852 22.5078C1.25625 21.6582 1.89346 20.9331 2.68447 20.3325C3.47549 19.7319 4.37637 19.2485 5.38711 18.8823C6.39785 18.5015 7.44522 18.2085 8.5292 18.0034C9.61318 17.7837 10.6825 17.6372 11.7372 17.564C12.7919 17.4761 13.7587 17.4248 14.6376 17.4102V16.2896C14.6376 15.3228 14.5131 14.4878 14.2641 13.7847C14.015 13.0815 13.6635 12.5029 13.2094 12.0488C12.7553 11.5801 12.206 11.2358 11.5614 11.0161C10.9315 10.7817 10.2357 10.6646 9.47402 10.6646C8.94668 10.6646 8.42666 10.7085 7.91397 10.7964C7.40127 10.8843 6.8666 11.0308 6.30996 11.2358C5.76797 11.4409 5.18936 11.7192 4.57412 12.0708C3.97354 12.4224 3.32168 12.8691 2.61856 13.4111L2.39883 13.2793L3.89297 10.1812C4.37637 9.96143 4.85244 9.78564 5.32119 9.65381C5.78994 9.50732 6.26602 9.39014 6.74941 9.30225C7.23281 9.21436 7.72354 9.15576 8.22158 9.12646C8.73428 9.08252 9.26895 9.06055 9.82559 9.06055C11.3637 9.06055 12.6747 9.25098 13.7587 9.63184C14.8573 9.99805 15.7509 10.5107 16.4394 11.1699C17.1425 11.8145 17.6552 12.5762 17.9774 13.4551C18.2997 14.3193 18.4608 15.2495 18.4608 16.2456V23.4087C18.4608 24.6538 18.4755 25.7451 18.5048 26.6826C18.5487 27.6055 18.5927 28.4038 18.6366 29.0776C18.6952 29.7515 18.7611 30.3154 18.8344 30.7695C18.9223 31.2236 19.0102 31.6045 19.098 31.9121V32H14.2421V31.9121C14.3153 31.6777 14.3666 31.4141 14.3959 31.1211C14.4398 30.8281 14.4765 30.4766 14.5058 30.0664C14.1981 30.3301 13.8319 30.6011 13.4071 30.8794C12.997 31.1577 12.5209 31.4141 11.9789 31.6484C11.4516 31.8682 10.8583 32.0439 10.1991 32.1758C9.55459 32.3223 8.84414 32.3955 8.06777 32.3955C5.51895 32.3955 3.54873 31.8022 2.15713 30.6157C0.765528 29.4146 0.0697269 27.7153 0.0697269 25.5181ZM14.6376 19.124C13.3046 19.1387 12.0229 19.2192 10.7924 19.3657C9.56191 19.4976 8.47061 19.7832 7.51846 20.2227C6.58096 20.6621 5.82656 21.292 5.25527 22.1123C4.69863 22.918 4.42031 23.9946 4.42031 25.3423C4.42031 27.0708 4.85244 28.3892 5.7167 29.2974C6.58096 30.2056 7.77481 30.6597 9.29824 30.6597C10.0014 30.6597 10.6386 30.5645 11.2099 30.374C11.7958 30.1689 12.3085 29.9199 12.7479 29.627C13.2021 29.3193 13.5829 28.9897 13.8905 28.6382C14.1981 28.272 14.4325 27.9204 14.5937 27.5835C14.6229 27.0269 14.6376 26.4116 14.6376 25.7378C14.6376 25.0493 14.6376 24.2729 14.6376 23.4087V19.124ZM25.3717 31.9121C25.4596 31.6045 25.5401 31.2236 25.6134 30.7695C25.7013 30.3154 25.7745 29.7515 25.8331 29.0776C25.8917 28.4038 25.9356 27.6055 25.9649 26.6826C25.9942 25.7451 26.0089 24.6538 26.0089 23.4087V9.10449C26.0089 7.85938 25.921 6.87061 25.7452 6.13818C25.5694 5.40576 25.357 4.8418 25.108 4.44629C24.8736 4.05078 24.6246 3.76514 24.3609 3.58936C24.1119 3.41357 23.8995 3.25244 23.7237 3.10596V3.01807L30.4693 0.491211V0.579102C30.3814 0.886719 30.2936 1.26758 30.2057 1.72168C30.1324 2.17578 30.0665 2.74707 30.0079 3.43555C29.9493 4.10938 29.9054 4.91504 29.8761 5.85254C29.8468 6.77539 29.8321 7.85938 29.8321 9.10449V23.4087C29.8321 24.6538 29.8468 25.7451 29.8761 26.6826C29.9054 27.6055 29.9493 28.4038 30.0079 29.0776C30.0665 29.7515 30.1324 30.3154 30.2057 30.7695C30.2936 31.2236 30.3814 31.6045 30.4693 31.9121V32H25.3717V31.9121Z" fill="white"/>
</svg>
