<svg width="24" height="30" viewBox="0 0 24 30" fill="none" xmlns="http://www.w3.org/2000/svg">
<path d="M11.7687 16.0769C14.1478 16.0769 16.0764 14.1483 16.0764 11.7692C16.0764 9.39007 14.1478 7.46143 11.7687 7.46143C9.38958 7.46143 7.46094 9.39007 7.46094 11.7692C7.46094 14.1483 9.38958 16.0769 11.7687 16.0769Z" stroke="#56736C" stroke-width="1.5" stroke-linecap="round" stroke-linejoin="round"/>
<path d="M22.5388 11.7694C22.5388 21.4618 11.7694 29.0004 11.7694 29.0004C11.7694 29.0004 1 21.4618 1 11.7694C1 8.91316 2.13463 6.17393 4.15428 4.15428C6.17393 2.13463 8.91316 1 11.7694 1C14.6256 1 17.3648 2.13463 19.3845 4.15428C21.4041 6.17393 22.5388 8.91316 22.5388 11.7694Z" stroke="#56736C" stroke-width="1.5" stroke-linecap="round" stroke-linejoin="round"/>
</svg>
