<svg width="18" height="16" viewBox="0 0 18 16" fill="none" xmlns="http://www.w3.org/2000/svg">
<path d="M16.3258 1H1.47578C1.10299 1 0.800781 1.30221 0.800781 1.675V13.825C0.800781 14.1978 1.10299 14.5 1.47578 14.5H16.3258C16.6986 14.5 17.0008 14.1978 17.0008 13.825V1.675C17.0008 1.30221 16.6986 1 16.3258 1Z" stroke="#3B4443" stroke-width="1.08" stroke-linecap="round" stroke-linejoin="round"/>
<path d="M4.80898 4.0374C4.80898 4.57329 4.37456 5.00771 3.83867 5.00771C3.30278 5.00771 2.86836 4.57329 2.86836 4.0374C2.86836 3.50151 3.30278 3.06709 3.83867 3.06709C4.37456 3.06709 4.80898 3.50151 4.80898 4.0374Z" fill="#3B4443" stroke="#3B4443" stroke-width="0.084375"/>
<path d="M8.18398 4.0374C8.18398 4.57329 7.74956 5.00771 7.21367 5.00771C6.67778 5.00771 6.24336 4.57329 6.24336 4.0374C6.24336 3.50151 6.67778 3.06709 7.21367 3.06709C7.74956 3.06709 8.18398 3.50151 8.18398 4.0374Z" fill="#3B4443" stroke="#3B4443" stroke-width="0.084375"/>
</svg>
