<svg width="73" height="60" viewBox="0 0 73 60" fill="none" xmlns="http://www.w3.org/2000/svg">
<path d="M16.0331 26.6567C22.4225 26.6567 27.1996 28.1286 30.3644 31.0724C33.589 34.0162 35.2012 38.1015 35.2012 43.3283C35.2012 48.0745 33.5292 52.0396 30.1853 55.2238C26.901 58.4079 22.7509 60 17.735 60C13.0773 60 8.95706 58.1977 5.37423 54.593C1.79141 50.9883 0 45.5812 0 38.3719C0 31.4629 1.01513 25.365 3.0454 20.0781C5.13538 14.7912 8.24049 10.4656 12.3607 7.10123C16.5407 3.73686 21.7358 1.45389 27.946 0.252331C28.4237 0.132176 28.8119 0.162213 29.1104 0.342441C29.4687 0.462603 29.6479 0.672879 29.6479 0.973269C29.6479 1.33373 29.5284 1.63412 29.2896 1.87444C29.1104 2.05468 28.782 2.20487 28.3043 2.32503C22.8703 3.52659 18.6008 5.38901 15.4957 7.91229C12.3906 10.4356 10.1812 13.1391 8.86749 16.0228C7.6135 18.9066 6.9865 21.4299 6.9865 23.5927C6.9865 24.5539 7.25521 25.3049 7.79264 25.8456C8.33006 26.3863 9.25562 26.6567 10.5693 26.6567H16.0331ZM53.8319 26.4764C60.2213 26.4764 64.9984 27.9483 68.1632 30.8922C71.3877 33.836 73 37.9213 73 43.1481C73 47.8943 71.328 51.8594 67.9841 55.0436C64.6998 58.2277 60.5497 59.8198 55.5337 59.8198C50.8761 59.8198 46.7558 58.0174 43.173 54.4127C39.5902 50.808 37.7988 45.401 37.7988 38.1916C37.7988 31.2827 38.8139 25.1847 40.8442 19.8979C42.9342 14.611 46.0393 10.2854 50.1595 6.921C54.3395 3.55663 59.5346 1.27366 65.7448 0.0720988C66.2225 -0.048063 66.6106 -0.0180261 66.9092 0.162209C67.2675 0.282364 67.4466 0.49264 67.4466 0.793037C67.4466 1.1535 67.3272 1.45389 67.0883 1.69421C66.9092 1.87444 66.5808 2.02463 66.1031 2.14479C60.6691 3.34635 56.3996 5.20877 53.2945 7.73205C50.1894 10.2553 47.98 12.9588 46.6663 15.8426C45.4123 18.7263 44.7853 21.2496 44.7853 23.4124C44.7853 24.3737 45.054 25.1247 45.5914 25.6654C46.1288 26.2061 47.0544 26.4764 48.3681 26.4764H53.8319Z" fill="white"/>
</svg>
