<svg width="87" height="60" viewBox="0 0 87 60" fill="none" xmlns="http://www.w3.org/2000/svg">
<path d="M31.6597 59C48.4535 59 62.0675 46.0163 62.0675 30C62.0675 13.9837 48.4535 1 31.6597 1C14.866 1 1.25195 13.9837 1.25195 30C1.25195 46.0163 14.866 59 31.6597 59Z" stroke="#333939" stroke-width="1.18974" stroke-linecap="round" stroke-linejoin="round"/>
<path d="M55.7769 59C72.5707 59 86.1847 46.0163 86.1847 30C86.1847 13.9837 72.5707 1 55.7769 1C38.9832 1 25.3691 13.9837 25.3691 30C25.3691 46.0163 38.9832 59 55.7769 59Z" stroke="#333939" stroke-width="1.18974" stroke-linecap="round" stroke-linejoin="round"/>
<line x1="25.3691" y1="30.5" x2="62.0682" y2="30.5" stroke="#333939"/>
<line x1="25.3691" y1="24.5" x2="62.0682" y2="24.5" stroke="#333939"/>
<line x1="27.4648" y1="18.5" x2="59.9697" y2="18.5" stroke="#333939"/>
<line x1="32.709" y1="11.5" x2="54.7284" y2="11.5" stroke="#333939"/>
<line x1="26.416" y1="36.5" x2="61.018" y2="36.5" stroke="#333939"/>
<line x1="28.5137" y1="42.5" x2="58.9214" y2="42.5" stroke="#333939"/>
<line x1="32.709" y1="48.5" x2="54.7284" y2="48.5" stroke="#333939"/>
</svg>
