<svg width="46" height="30" viewBox="0 0 46 30" fill="none" xmlns="http://www.w3.org/2000/svg">
<path d="M1 6H19" stroke="#D1A97A" stroke-width="2" stroke-linecap="round" stroke-linejoin="round"/>
<path d="M28 6H45" stroke="#D1A97A" stroke-width="2" stroke-linecap="round" stroke-linejoin="round"/>
<path d="M23.5 10C25.9853 10 28 7.98528 28 5.5C28 3.01472 25.9853 1 23.5 1C21.0147 1 19 3.01472 19 5.5C19 7.98528 21.0147 10 23.5 10Z" stroke="#D1A97A" stroke-width="2" stroke-linecap="round" stroke-linejoin="round"/>
<path d="M5.5 29C7.98528 29 10 26.9853 10 24.5C10 22.0147 7.98528 20 5.5 20C3.01472 20 1 22.0147 1 24.5C1 26.9853 3.01472 29 5.5 29Z" stroke="#D1A97A" stroke-width="2" stroke-linecap="round" stroke-linejoin="round"/>
<path d="M40.5 29C42.9853 29 45 26.9853 45 24.5C45 22.0147 42.9853 20 40.5 20C38.0147 20 36 22.0147 36 24.5C36 26.9853 38.0147 29 40.5 29Z" stroke="#D1A97A" stroke-width="2" stroke-linecap="round" stroke-linejoin="round"/>
<path d="M28 7C31.0289 7.84259 33.7585 9.50703 35.8794 11.8047C38.0003 14.1024 39.4278 16.9414 40 20" stroke="#D1A97A" stroke-width="2" stroke-linecap="round" stroke-linejoin="round"/>
<path d="M6 20C6.62013 16.9415 8.16663 14.1026 10.4643 11.8049C12.7619 9.5073 15.7188 7.84279 19 7" stroke="#D1A97A" stroke-width="2" stroke-linecap="round" stroke-linejoin="round"/>
</svg>
