<svg width="21" height="21" viewBox="0 0 21 21" fill="none" xmlns="http://www.w3.org/2000/svg">
<path d="M10.5 0C8.4233 0 6.39323 0.615814 4.66652 1.76957C2.9398 2.92332 1.59399 4.5632 0.799269 6.48182C0.00454949 8.40045 -0.203385 10.5116 0.201759 12.5484C0.606904 14.5852 1.60693 16.4562 3.07538 17.9246C4.54383 19.3931 6.41475 20.3931 8.45155 20.7982C10.4884 21.2034 12.5996 20.9954 14.5182 20.2007C16.4368 19.406 18.0767 18.0602 19.2304 16.3335C20.3842 14.6068 21 12.5767 21 10.5C20.9971 7.71613 19.8899 5.04712 17.9214 3.07862C15.9529 1.11013 13.2839 0.00293982 10.5 0ZM16.1538 11.3077H10.5C10.2858 11.3077 10.0803 11.2226 9.92888 11.0711C9.77741 10.9197 9.69231 10.7142 9.69231 10.5V4.84615C9.69231 4.63194 9.77741 4.4265 9.92888 4.27503C10.0803 4.12356 10.2858 4.03846 10.5 4.03846C10.7142 4.03846 10.9197 4.12356 11.0711 4.27503C11.2226 4.4265 11.3077 4.63194 11.3077 4.84615V9.69231H16.1538C16.3681 9.69231 16.5735 9.7774 16.725 9.92887C16.8764 10.0803 16.9615 10.2858 16.9615 10.5C16.9615 10.7142 16.8764 10.9197 16.725 11.0711C16.5735 11.2226 16.3681 11.3077 16.1538 11.3077Z" fill="#D1A97A"/>
</svg>
