<svg width="19" height="24" viewBox="0 0 19 24" fill="none" xmlns="http://www.w3.org/2000/svg">
<path d="M9.5 0C6.98132 0.00283581 4.56662 0.997121 2.78564 2.76472C1.00466 4.53233 0.00285727 6.9289 0 9.42867C0 17.4966 8.63636 23.5899 9.00449 23.8449C9.1497 23.9458 9.3227 24 9.5 24C9.6773 24 9.8503 23.9458 9.99551 23.8449C10.3636 23.5899 19 17.4966 19 9.42867C18.9971 6.9289 17.9953 4.53233 16.2144 2.76472C14.4334 0.997121 12.0187 0.00283581 9.5 0ZM9.5 6.00006C10.1832 6.00006 10.8511 6.20114 11.4192 6.57788C11.9873 6.95462 12.4301 7.4901 12.6916 8.1166C12.9531 8.74309 13.0215 9.43247 12.8882 10.0976C12.7549 10.7626 12.4259 11.3736 11.9427 11.8531C11.4596 12.3326 10.8441 12.6591 10.1739 12.7914C9.50383 12.9237 8.80924 12.8558 8.178 12.5963C7.54677 12.3368 7.00724 11.8973 6.62765 11.3335C6.24806 10.7697 6.04545 10.1068 6.04545 9.42867C6.04545 8.51934 6.40941 7.64726 7.05727 7.00428C7.70512 6.36129 8.5838 6.00006 9.5 6.00006Z" fill="#D1A97A"/>
</svg>
