<svg width="50" height="50" viewBox="0 0 50 50" fill="none" xmlns="http://www.w3.org/2000/svg">
<path d="M17.1875 45.3125H32.8125" stroke="#D1A97A" stroke-width="2" stroke-linecap="round" stroke-linejoin="round"/>
<path d="M25 39.0625V28.125" stroke="#D1A97A" stroke-width="2" stroke-linecap="round" stroke-linejoin="round"/>
<path d="M18.75 21.875L25 28.125L31.25 21.875" stroke="#D1A97A" stroke-width="2" stroke-linecap="round" stroke-linejoin="round"/>
<path d="M15.3713 32.6171C13.5139 31.1661 12.0094 29.313 10.9708 27.1971C9.93232 25.0811 9.38679 22.7574 9.37524 20.4003C9.32836 11.9316 16.1565 4.88276 24.6233 4.68745C27.9046 4.60797 31.1275 5.56381 33.8349 7.41936C36.5423 9.2749 38.5967 11.9359 39.7064 15.0248C40.8162 18.1138 40.925 21.4737 40.0175 24.628C39.11 27.7823 37.2323 30.5707 34.6506 32.5976C34.0812 33.0391 33.6198 33.6045 33.3013 34.2508C32.9829 34.8972 32.8158 35.6075 32.8127 36.3281V37.4999C32.8127 37.9143 32.6481 38.3118 32.3551 38.6048C32.0621 38.8978 31.6646 39.0624 31.2502 39.0624H18.7502C18.3358 39.0624 17.9384 38.8978 17.6454 38.6048C17.3524 38.3118 17.1877 37.9143 17.1877 37.4999V36.3281C17.187 35.6121 17.023 34.9058 16.7083 34.2628C16.3935 33.6197 15.9363 33.0569 15.3713 32.6171Z" stroke="#D1A97A" stroke-width="2" stroke-linecap="round" stroke-linejoin="round"/>
</svg>
