<svg width="48" height="52" viewBox="0 0 48 52" fill="none" xmlns="http://www.w3.org/2000/svg">
<mask id="path-1-inside-1_1_13815" fill="white">
<path d="M0.175781 13.2256L24.0008 26.2656L35.9133 19.7456L47.8258 13.2256"/>
</mask>
<path d="M24.0008 26.2656L23.5207 27.1428L24.0008 27.4056L24.4809 27.1428L24.0008 26.2656ZM35.9133 19.7456L36.3934 20.6228L35.9133 19.7456ZM-0.304334 14.1028L23.5207 27.1428L24.4809 25.3884L0.655897 12.3484L-0.304334 14.1028ZM24.4809 27.1428L36.3934 20.6228L35.4332 18.8684L23.5207 25.3884L24.4809 27.1428ZM36.3934 20.6228L48.3059 14.1028L47.3457 12.3484L35.4332 18.8684L36.3934 20.6228Z" fill="white" mask="url(#path-1-inside-1_1_13815)"/>
<path d="M46.7199 12.729L46.72 12.7291C46.9556 12.858 47.1523 13.0478 47.2895 13.2787C47.4267 13.5096 47.4994 13.773 47.5 14.0416V37.9493C47.4994 38.2179 47.4267 38.4814 47.2895 38.7122C47.1523 38.9431 46.9556 39.1329 46.72 39.2618L46.7199 39.2619L24.72 51.3068C24.72 51.3069 24.7199 51.3069 24.7199 51.3069C24.4991 51.4276 24.2516 51.4909 24 51.4909C23.7484 51.4909 23.5009 51.4276 23.2801 51.3069C23.2801 51.3069 23.28 51.3069 23.28 51.3068L1.28012 39.2619L1.28 39.2618C1.0444 39.1329 0.847723 38.9431 0.710516 38.7122C0.573401 38.4815 0.500703 38.2182 0.5 37.9499V14.0411C0.500703 13.7727 0.573401 13.5094 0.710516 13.2787C0.847721 13.0478 1.04439 12.858 1.28 12.7291L1.28012 12.729L23.28 0.684097C23.28 0.684075 23.2801 0.684055 23.2801 0.684033C23.5008 0.563287 23.7484 0.5 24 0.5C24.2516 0.5 24.4992 0.563287 24.7199 0.684033C24.7199 0.684055 24.72 0.684075 24.72 0.684097L46.7199 12.729Z" stroke="white"/>
<path d="M24 26.2679V51.9954" stroke="white"/>
</svg>
