<svg width="18" height="18" viewBox="0 0 18 18" fill="none" xmlns="http://www.w3.org/2000/svg">
<path d="M8.01908 0.94915C8.23197 -0.12496 9.76803 -0.12496 9.98092 0.94915L10.166 1.8828C10.323 2.67528 11.3064 2.96402 11.867 2.38226L12.5274 1.69687C13.2872 0.908367 14.5794 1.73882 14.1778 2.75752L13.8287 3.643C13.5324 4.3946 14.2036 5.16914 14.9897 4.98281L15.9158 4.76328C16.9813 4.51073 17.6194 5.90798 16.7308 6.54783L15.9584 7.10401C15.3028 7.57609 15.4486 8.59053 16.2107 8.85878L17.1085 9.17482C18.1414 9.5384 17.9228 11.0588 16.8293 11.1167L15.8788 11.167C15.0721 11.2097 14.6463 12.1419 15.1424 12.7796L15.7268 13.5309C16.3991 14.3951 15.3932 15.556 14.4421 15.0135L13.6153 14.542C12.9135 14.1417 12.0513 14.6958 12.1239 15.5004L12.2094 16.4484C12.3077 17.539 10.8339 17.9717 10.327 17.0011L9.88641 16.1574C9.51243 15.4413 8.48757 15.4413 8.11359 16.1574L7.673 17.0011C7.16612 17.9717 5.69228 17.539 5.79063 16.4484L5.87611 15.5004C5.94868 14.6958 5.0865 14.1417 4.38472 14.542L3.55794 15.0135C2.60677 15.556 1.60086 14.3951 2.27321 13.5309L2.85763 12.7796C3.35369 12.1419 2.92795 11.2097 2.12117 11.167L1.1707 11.1167C0.0772219 11.0588 -0.141382 9.5384 0.891498 9.17482L1.7893 8.85878C2.55137 8.59053 2.69723 7.5761 2.0416 7.10401L1.2692 6.54783C0.380592 5.90798 1.01869 4.51073 2.08418 4.76328L3.01032 4.98281C3.79644 5.16914 4.46759 4.3946 4.17128 3.643L3.82218 2.75752C3.42057 1.73882 4.71278 0.908366 5.47258 1.69687L6.13302 2.38226C6.69361 2.96402 7.67696 2.67528 7.83403 1.8828L8.01908 0.94915Z" fill="white"/>
</svg>
