<svg width="48" height="41" viewBox="0 0 48 41" fill="none" xmlns="http://www.w3.org/2000/svg">
<path d="M17.634 20.5C17.634 26.0742 16.6163 31.0819 15.0045 34.666C13.3588 38.3257 11.251 40.1961 9.21895 40.1961C7.18689 40.1961 5.07914 38.3257 3.43336 34.666C1.8216 31.0819 0.803922 26.0742 0.803922 20.5C0.803922 14.9258 1.8216 9.91807 3.43336 6.33403C5.07914 2.67434 7.18689 0.803922 9.21895 0.803922C11.251 0.803922 13.3588 2.67434 15.0045 6.33403C16.6163 9.91807 17.634 14.9258 17.634 20.5Z" stroke="#D1A97A" stroke-width="1.60784"/>
<path d="M27.2922 20.5C27.2922 26.0742 26.2745 31.0819 24.6627 34.666C23.017 38.3257 20.9092 40.1961 18.8772 40.1961C16.8451 40.1961 14.7373 38.3257 13.0916 34.666C11.4798 31.0819 10.4621 26.0742 10.4621 20.5C10.4621 14.9258 11.4798 9.91807 13.0916 6.33403C14.7373 2.67434 16.8451 0.803922 18.8772 0.803922C20.9092 0.803922 23.017 2.67434 24.6627 6.33403C26.2745 9.91807 27.2922 14.9258 27.2922 20.5Z" stroke="#D1A97A" stroke-width="1.60784"/>
<path d="M36.9504 20.5C36.9504 26.0742 35.9327 31.0819 34.321 34.666C32.6752 38.3257 30.5674 40.1961 28.5354 40.1961C26.5033 40.1961 24.3955 38.3257 22.7498 34.666C21.138 31.0819 20.1203 26.0742 20.1203 20.5C20.1203 14.9258 21.138 9.91807 22.7498 6.33403C24.3955 2.67434 26.5033 0.803922 28.5354 0.803922C30.5674 0.803922 32.6752 2.67434 34.321 6.33403C35.9327 9.91807 36.9504 14.9258 36.9504 20.5Z" stroke="#D1A97A" stroke-width="1.60784"/>
<path d="M46.6086 20.5C46.6086 26.0742 45.5909 31.0819 43.9792 34.666C42.3334 38.3257 40.2256 40.1961 38.1936 40.1961C36.1615 40.1961 34.0538 38.3257 32.408 34.666C30.7962 31.0819 29.7785 26.0742 29.7785 20.5C29.7785 14.9258 30.7962 9.91807 32.408 6.33403C34.0538 2.67434 36.1615 0.803922 38.1936 0.803922C40.2256 0.803922 42.3334 2.67434 43.9792 6.33403C45.5909 9.91807 46.6086 14.9258 46.6086 20.5Z" stroke="#D1A97A" stroke-width="1.60784"/>
</svg>
