<svg width="18" height="18" viewBox="0 0 18 18" fill="none" xmlns="http://www.w3.org/2000/svg">
<path d="M9 17.25C13.5563 17.25 17.25 13.5563 17.25 9C17.25 4.44365 13.5563 0.75 9 0.75C4.44365 0.75 0.75 4.44365 0.75 9C0.75 13.5563 4.44365 17.25 9 17.25Z" stroke="white" stroke-linecap="round" stroke-linejoin="round"/>
<path d="M9 13.8125C11.6579 13.8125 13.8125 11.6579 13.8125 9C13.8125 6.34213 11.6579 4.1875 9 4.1875C6.34213 4.1875 4.1875 6.34213 4.1875 9C4.1875 11.6579 6.34213 13.8125 9 13.8125Z" stroke="white" stroke-linecap="round" stroke-linejoin="round"/>
<path d="M9 0.75V17.25" stroke="white" stroke-linecap="round" stroke-linejoin="round"/>
<path d="M0.75 9H17.25" stroke="white" stroke-linecap="round" stroke-linejoin="round"/>
</svg>
