<svg width="48" height="53" viewBox="0 0 48 53" fill="none" xmlns="http://www.w3.org/2000/svg">
<path d="M44.9091 5.18182H3.09091C1.93613 5.18182 1 6.11796 1 7.27273V49.0909C1 50.2457 1.93613 51.1818 3.09091 51.1818H44.9091C46.0639 51.1818 47 50.2457 47 49.0909V7.27273C47 6.11796 46.0639 5.18182 44.9091 5.18182Z" stroke="white" stroke-width="2" stroke-linecap="round" stroke-linejoin="round"/>
<path d="M36.5449 1V9.36364" stroke="white" stroke-width="2" stroke-linecap="round" stroke-linejoin="round"/>
<path d="M11.4551 1V9.36364" stroke="white" stroke-width="2" stroke-linecap="round" stroke-linejoin="round"/>
<path d="M24.0005 36.1639L31.7552 40.7273L29.646 32.2095L36.546 26.5117L27.4897 25.8139L24.0005 17.7273L20.5113 25.8139L11.4551 26.5117L18.3551 32.2095L16.2459 40.7273L24.0005 36.1639Z" stroke="white" stroke-width="2" stroke-linecap="round" stroke-linejoin="round"/>
</svg>
