<svg width="54" height="47" viewBox="0 0 54 47" fill="none" xmlns="http://www.w3.org/2000/svg">
<circle cx="26.5744" cy="9.42206" r="9.42206" fill="#D1A97A"/>
<circle cx="26.6502" cy="37.0379" r="9.42206" transform="rotate(-180 26.6502 37.0379)" fill="#D5D5D5"/>
<path d="M33.2366 29.8924C29.5571 26.2128 29.5571 20.2471 33.2366 16.5676L38.2679 11.5363C39.1688 10.6354 40.6293 10.6354 41.5301 11.5363L51.5927 21.5989C52.4936 22.4997 52.4936 23.9602 51.5927 24.8611L46.5614 29.8924C42.8819 33.5719 36.9162 33.5719 33.2366 29.8924Z" fill="#3B4443"/>
<path d="M19.988 16.5676C23.6675 20.2471 23.6675 26.2128 19.988 29.8924L14.9567 34.9237C14.0559 35.8245 12.5953 35.8245 11.6945 34.9237L1.63188 24.8611C0.731054 23.9602 0.731053 22.4997 1.63188 21.5989L6.66319 16.5676C10.3427 12.888 16.3084 12.888 19.988 16.5676Z" fill="#797979"/>
</svg>
