<svg width="157" height="47" viewBox="0 0 157 47" fill="none" xmlns="http://www.w3.org/2000/svg">
<path d="M83.2619 12.467H87.4592V27.6042C87.4592 29.2635 87.067 30.723 86.2826 31.9825C85.5057 33.2421 84.4121 34.2263 83.0017 34.9353C81.5913 35.6367 79.9433 35.9874 78.0578 35.9874C76.1647 35.9874 74.5129 35.6367 73.1025 34.9353C71.6921 34.2263 70.5985 33.2421 69.8217 31.9825C69.0448 30.723 68.6564 29.2635 68.6564 27.6042V12.467H72.8536V27.2535C72.8536 28.2189 73.0648 29.0787 73.4872 29.833C73.9171 30.5872 74.5205 31.1793 75.2973 31.6092C76.0742 32.0315 76.9943 32.2427 78.0578 32.2427C79.1212 32.2427 80.0414 32.0315 80.8182 31.6092C81.6026 31.1793 82.206 30.5872 82.6284 29.833C83.0508 29.0787 83.2619 28.2189 83.2619 27.2535V12.467ZM95.6171 25.4547V35.6367H91.5217V18.2594H95.4361V21.2122H95.6398C96.0395 20.2392 96.6768 19.4662 97.5517 18.893C98.4342 18.3197 99.524 18.0331 100.821 18.0331C102.02 18.0331 103.065 18.2896 103.955 18.8024C104.853 19.3153 105.546 20.0582 106.037 21.0312C106.535 22.0041 106.78 23.1845 106.772 24.5723V35.6367H102.677V25.2058C102.677 24.0443 102.375 23.1355 101.772 22.4793C101.176 21.8231 100.35 21.495 99.294 21.495C98.5775 21.495 97.9401 21.6534 97.382 21.9702C96.8314 22.2794 96.3978 22.7282 96.081 23.3165C95.7717 23.9048 95.6171 24.6175 95.6171 25.4547ZM110.617 35.6367V18.2594H114.712V35.6367H110.617ZM112.676 15.7931C112.027 15.7931 111.469 15.5781 111.001 15.1482C110.534 14.7108 110.3 14.1866 110.3 13.5757C110.3 12.9572 110.534 12.433 111.001 12.0031C111.469 11.5657 112.027 11.3469 112.676 11.3469C113.332 11.3469 113.89 11.5657 114.35 12.0031C114.818 12.433 115.052 12.9572 115.052 13.5757C115.052 14.1866 114.818 14.7108 114.35 15.1482C113.89 15.5781 113.332 15.7931 112.676 15.7931ZM130.201 42.1532V32.8989H130.032C129.82 33.3213 129.515 33.77 129.115 34.2452C128.715 34.7128 128.187 35.1125 127.531 35.4444C126.875 35.7763 126.049 35.9422 125.054 35.9422C123.689 35.9422 122.467 35.5915 121.388 34.89C120.31 34.1886 119.457 33.1704 118.831 31.8354C118.205 30.5005 117.892 28.8789 117.892 26.9707C117.892 25.0399 118.209 23.4108 118.843 22.0833C119.484 20.7483 120.347 19.7415 121.433 19.0627C122.519 18.3763 123.73 18.0331 125.065 18.0331C126.083 18.0331 126.92 18.2066 127.577 18.5536C128.233 18.893 128.753 19.304 129.138 19.7867C129.522 20.2619 129.82 20.7106 130.032 21.133H130.28V18.2594H134.308V42.1532H130.201ZM126.196 32.5821C127.064 32.5821 127.803 32.3483 128.414 31.8807C129.025 31.4055 129.489 30.7456 129.805 29.9008C130.122 29.0561 130.28 28.0719 130.28 26.9481C130.28 25.8243 130.122 24.8475 129.805 24.0179C129.496 23.1883 129.036 22.5434 128.425 22.0833C127.822 21.6232 127.079 21.3932 126.196 21.3932C125.284 21.3932 124.522 21.6308 123.911 22.1059C123.3 22.5811 122.84 23.2373 122.531 24.0745C122.222 24.9117 122.067 25.8695 122.067 26.9481C122.067 28.0341 122.222 29.0033 122.531 29.8556C122.848 30.7003 123.311 31.3678 123.922 31.8581C124.541 32.3408 125.299 32.5821 126.196 32.5821ZM145.778 35.9761C144.081 35.9761 142.61 35.6028 141.366 34.8561C140.121 34.1094 139.156 33.0648 138.47 31.7223C137.791 30.3798 137.451 28.811 137.451 27.0159C137.451 25.2209 137.791 23.6483 138.47 22.2983C139.156 20.9482 140.121 19.8998 141.366 19.1532C142.61 18.4065 144.081 18.0331 145.778 18.0331C147.475 18.0331 148.946 18.4065 150.19 19.1532C151.435 19.8998 152.396 20.9482 153.075 22.2983C153.761 23.6483 154.105 25.2209 154.105 27.0159C154.105 28.811 153.761 30.3798 153.075 31.7223C152.396 33.0648 151.435 34.1094 150.19 34.8561C148.946 35.6028 147.475 35.9761 145.778 35.9761ZM145.801 32.6952C146.721 32.6952 147.49 32.4426 148.108 31.9373C148.727 31.4244 149.187 30.738 149.489 29.8782C149.798 29.0184 149.953 28.0605 149.953 27.0046C149.953 25.9412 149.798 24.9795 149.489 24.1197C149.187 23.2524 148.727 22.5623 148.108 22.0494C147.49 21.5365 146.721 21.2801 145.801 21.2801C144.858 21.2801 144.073 21.5365 143.447 22.0494C142.829 22.5623 142.365 23.2524 142.056 24.1197C141.754 24.9795 141.603 25.9412 141.603 27.0046C141.603 28.0605 141.754 29.0184 142.056 29.8782C142.365 30.738 142.829 31.4244 143.447 31.9373C144.073 32.4426 144.858 32.6952 145.801 32.6952Z" fill="#3B4443"/>
<circle cx="26.5744" cy="9.42206" r="9.42206" fill="#D1A97A"/>
<circle cx="26.6502" cy="37.0379" r="9.42206" transform="rotate(-180 26.6502 37.0379)" fill="#D5D5D5"/>
<path d="M33.2366 29.8924C29.5571 26.2128 29.5571 20.2471 33.2366 16.5676L38.2679 11.5363C39.1688 10.6354 40.6293 10.6354 41.5301 11.5363L51.5927 21.5989C52.4936 22.4997 52.4936 23.9602 51.5927 24.8611L46.5614 29.8924C42.8819 33.5719 36.9162 33.5719 33.2366 29.8924Z" fill="#3B4443"/>
<path d="M19.988 16.5676C23.6675 20.2471 23.6675 26.2128 19.988 29.8924L14.9567 34.9237C14.0559 35.8245 12.5953 35.8245 11.6945 34.9237L1.63188 24.8611C0.731054 23.9602 0.731053 22.4997 1.63188 21.5989L6.66319 16.5676C10.3427 12.888 16.3084 12.888 19.988 16.5676Z" fill="#797979"/>
</svg>
