<svg width="120" height="35" viewBox="0 0 120 35" fill="none" xmlns="http://www.w3.org/2000/svg">
<path d="M63.2546 9.81818H66.5483V21.6967C66.5483 22.9988 66.2405 24.1441 65.625 25.1325C65.0154 26.1209 64.1572 26.8932 63.0504 27.4496C61.9437 28 60.6505 28.2752 59.1708 28.2752C57.6853 28.2752 56.3891 28 55.2823 27.4496C54.1755 26.8932 53.3174 26.1209 52.7077 25.1325C52.0981 24.1441 51.7933 22.9988 51.7933 21.6967V9.81818H55.087V21.4215C55.087 22.1791 55.2527 22.8538 55.5842 23.4457C55.9215 24.0375 56.395 24.5021 57.0046 24.8395C57.6142 25.1709 58.3363 25.3366 59.1708 25.3366C60.0053 25.3366 60.7274 25.1709 61.337 24.8395C61.9525 24.5021 62.426 24.0375 62.7575 23.4457C63.0889 22.8538 63.2546 22.1791 63.2546 21.4215V9.81818ZM72.95 20.0099V28H69.7362V14.3636H72.808V16.6808H72.9678C73.2815 15.9173 73.7816 15.3106 74.4681 14.8608C75.1606 14.411 76.0158 14.1861 77.0338 14.1861C77.9749 14.1861 78.7946 14.3873 79.493 14.7898C80.1973 15.1922 80.7418 15.7752 81.1265 16.5387C81.5171 17.3022 81.7095 18.2285 81.7036 19.3175V28H78.4898V19.8146C78.4898 18.9032 78.253 18.19 77.7796 17.6751C77.312 17.1602 76.6639 16.9027 75.8353 16.9027C75.2731 16.9027 74.7729 17.027 74.335 17.2756C73.9029 17.5182 73.5626 17.8704 73.314 18.332C73.0713 18.7937 72.95 19.353 72.95 20.0099ZM84.7206 28V14.3636H87.9344V28H84.7206ZM86.3364 12.4283C85.8274 12.4283 85.3894 12.2596 85.0225 11.9222C84.6555 11.579 84.472 11.1676 84.472 10.6882C84.472 10.2029 84.6555 9.79155 85.0225 9.45419C85.3894 9.11091 85.8274 8.93928 86.3364 8.93928C86.8513 8.93928 87.2893 9.11091 87.6503 9.45419C88.0173 9.79155 88.2007 10.2029 88.2007 10.6882C88.2007 11.1676 88.0173 11.579 87.6503 11.9222C87.2893 12.2596 86.8513 12.4283 86.3364 12.4283ZM100.089 33.1136V25.8516H99.9558C99.7901 26.183 99.5504 26.5352 99.2367 26.908C98.923 27.275 98.5087 27.5887 97.9938 27.8491C97.4789 28.1095 96.8308 28.2397 96.0495 28.2397C94.9783 28.2397 94.0195 27.9645 93.1731 27.4141C92.3268 26.8636 91.658 26.0646 91.1667 25.017C90.6755 23.9695 90.4299 22.697 90.4299 21.1996C90.4299 19.6844 90.6784 18.406 91.1756 17.3643C91.6787 16.3168 92.3564 15.5266 93.2086 14.994C94.0609 14.4554 95.0108 14.1861 96.0584 14.1861C96.8574 14.1861 97.5144 14.3222 98.0293 14.5945C98.5442 14.8608 98.9526 15.1834 99.2544 15.5621C99.5563 15.935 99.7901 16.2872 99.9558 16.6186H100.151V14.3636H103.312V33.1136H100.089ZM96.9462 25.603C97.6268 25.603 98.2069 25.4195 98.6863 25.0526C99.1657 24.6797 99.5297 24.1618 99.7782 23.4989C100.027 22.8361 100.151 22.0637 100.151 21.1818C100.151 20.3 100.027 19.5335 99.7782 18.8825C99.5356 18.2314 99.1745 17.7254 98.6951 17.3643C98.2217 17.0033 97.6387 16.8228 96.9462 16.8228C96.2301 16.8228 95.6323 17.0092 95.1529 17.3821C94.6735 17.755 94.3124 18.2699 94.0698 18.9268C93.8271 19.5838 93.7058 20.3355 93.7058 21.1818C93.7058 22.0341 93.8271 22.7946 94.0698 23.4634C94.3184 24.1263 94.6824 24.6501 95.1618 25.0348C95.6471 25.4136 96.2419 25.603 96.9462 25.603ZM112.312 28.2663C110.981 28.2663 109.827 27.9734 108.85 27.3874C107.873 26.8015 107.116 25.9818 106.577 24.9283C106.045 23.8748 105.778 22.6437 105.778 21.2351C105.778 19.8265 106.045 18.5924 106.577 17.533C107.116 16.4736 107.873 15.6509 108.85 15.065C109.827 14.479 110.981 14.1861 112.312 14.1861C113.644 14.1861 114.798 14.479 115.775 15.065C116.751 15.6509 117.506 16.4736 118.039 17.533C118.577 18.5924 118.846 19.8265 118.846 21.2351C118.846 22.6437 118.577 23.8748 118.039 24.9283C117.506 25.9818 116.751 26.8015 115.775 27.3874C114.798 27.9734 113.644 28.2663 112.312 28.2663ZM112.33 25.6918C113.052 25.6918 113.656 25.4935 114.141 25.0969C114.626 24.6945 114.988 24.1559 115.224 23.4812C115.467 22.8065 115.588 22.0548 115.588 21.2262C115.588 20.3917 115.467 19.6371 115.224 18.9624C114.988 18.2817 114.626 17.7402 114.141 17.3377C113.656 16.9353 113.052 16.734 112.33 16.734C111.59 16.734 110.975 16.9353 110.483 17.3377C109.998 17.7402 109.634 18.2817 109.392 18.9624C109.155 19.6371 109.036 20.3917 109.036 21.2262C109.036 22.0548 109.155 22.8065 109.392 23.4812C109.634 24.1559 109.998 24.6945 110.483 25.0969C110.975 25.4935 111.59 25.6918 112.33 25.6918Z" fill="#3B4443"/>
<circle cx="20.0198" cy="7.09795" r="7.09795" fill="#3B4443"/>
<circle cx="20.0759" cy="27.9021" r="7.09795" transform="rotate(-180 20.0759 27.9021)" fill="#3B4443"/>
<path d="M25.0385 22.519C22.2666 19.7471 22.2666 15.2529 25.0385 12.481L28.8288 8.69074C29.5074 8.01212 30.6077 8.01212 31.2863 8.69074L38.8668 16.2712C39.5454 16.9499 39.5454 18.0501 38.8668 18.7288L35.0766 22.519C32.3046 25.2909 27.8105 25.2909 25.0385 22.519Z" fill="#3B4443"/>
<path d="M15.0572 12.481C17.8291 15.2529 17.8291 19.7471 15.0572 22.519L11.2669 26.3093C10.5883 26.9879 9.48802 26.9879 8.8094 26.3093L1.22889 18.7288C0.550271 18.0501 0.55027 16.9499 1.22889 16.2712L5.01915 12.481C7.79107 9.70907 12.2852 9.70907 15.0572 12.481Z" fill="#3B4443"/>
</svg>
