<svg width="26" height="22" viewBox="0 0 26 22" fill="none" xmlns="http://www.w3.org/2000/svg">
<path d="M9.94629 17.124C9.94629 18.4912 9.46777 19.6362 8.51074 20.5591C7.55371 21.4819 6.35742 21.9434 4.92188 21.9434C3.55469 21.9434 2.39258 21.4136 1.43555 20.354C0.478516 19.2944 0 17.9614 0 16.355C0 15.1929 0.256348 13.9111 0.769043 12.5098C1.31592 11.1084 2.0166 9.68994 2.87109 8.25439C3.75977 6.81885 4.75098 5.40039 5.84473 3.99902C6.97266 2.56348 8.10059 1.23047 9.22852 0L10.6128 1.12793C9.07471 2.93945 7.79297 4.76807 6.76758 6.61377C5.74219 8.45947 5.12695 10.271 4.92188 12.0483C6.28906 12.1509 7.46826 12.6636 8.45947 13.5864C9.45068 14.5093 9.94629 15.6885 9.94629 17.124ZM24.6606 17.124C24.6606 18.4912 24.1821 19.6362 23.2251 20.5591C22.2681 21.4819 21.0718 21.9434 19.6362 21.9434C18.269 21.9434 17.1069 21.4136 16.1499 20.354C15.1929 19.2944 14.7144 17.9614 14.7144 16.355C14.7144 15.1929 14.9707 13.9111 15.4834 12.5098C16.0303 11.1084 16.731 9.68994 17.5854 8.25439C18.4741 6.81885 19.4653 5.40039 20.5591 3.99902C21.687 2.56348 22.8149 1.23047 23.9429 0L25.2759 1.12793C23.7378 2.93945 22.4561 4.76807 21.4307 6.61377C20.4395 8.45947 19.8413 10.271 19.6362 12.0483C21.0034 12.1509 22.1826 12.6636 23.1738 13.5864C24.165 14.5093 24.6606 15.6885 24.6606 17.124Z" fill="#3B4443"/>
</svg>
