<svg width="65" height="53" viewBox="0 0 65 53" fill="none" xmlns="http://www.w3.org/2000/svg">
<path d="M14.2761 23.5467C19.9652 23.5467 24.2188 24.8469 27.0368 27.4473C29.908 30.0477 31.3436 33.6564 31.3436 38.2734C31.3436 42.4658 29.8548 45.9684 26.8773 48.781C23.953 51.5937 20.2577 53 15.7914 53C11.6442 53 7.97545 51.4079 4.78527 48.2238C1.59508 45.0397 -4.10945e-06 40.2634 -4.66619e-06 33.8952C-5.19972e-06 27.7922 0.903879 22.4057 2.71165 17.7357C4.57259 13.0656 7.33741 9.24462 11.0061 6.27276C14.728 3.3009 19.3538 1.28427 24.8834 0.222896C25.3088 0.116759 25.6544 0.143292 25.9202 0.302493C26.2393 0.408636 26.3988 0.59438 26.3988 0.859725C26.3988 1.17813 26.2924 1.44348 26.0797 1.65576C25.9202 1.81497 25.6278 1.94764 25.2024 2.05378C20.364 3.11515 16.5624 4.76029 13.7975 6.9892C11.0327 9.21809 9.06543 11.6062 7.8957 14.1535C6.77913 16.7008 6.22085 18.9297 6.22085 20.8402C6.22085 21.6893 6.46011 22.3527 6.93864 22.8303C7.41717 23.3079 8.2413 23.5467 9.41104 23.5467L14.2761 23.5467ZM47.9325 23.3875C53.6217 23.3875 57.8753 24.6877 60.6933 27.2881C63.5644 29.8885 65 33.4971 65 38.1141C65 42.3066 63.5113 45.8092 60.5337 48.6218C57.6094 51.4345 53.9141 52.8408 49.4479 52.8408C45.3006 52.8408 41.6319 51.2487 38.4417 48.0646C35.2515 44.8804 33.6564 40.1042 33.6564 33.736C33.6564 27.633 34.5603 22.2465 36.3681 17.5765C38.229 12.9064 40.9939 9.08541 44.6626 6.11355C48.3845 3.14169 53.0102 1.12507 58.5399 0.0636878C58.9652 -0.0424551 59.3108 -0.0159226 59.5767 0.143285C59.8957 0.249422 60.0552 0.435166 60.0552 0.700517C60.0552 1.01893 59.9489 1.28427 59.7362 1.49655C59.5767 1.65575 59.2843 1.78842 58.8589 1.89457C54.0204 2.95595 50.2188 4.60108 47.454 6.82998C44.6892 9.05888 42.7219 11.447 41.5521 13.9943C40.4356 16.5416 39.8773 18.7705 39.8773 20.681C39.8773 21.5301 40.1166 22.1935 40.5951 22.6711C41.0736 23.1487 41.8977 23.3875 43.0675 23.3875L47.9325 23.3875Z" fill="#C9A885"/>
</svg>
