<svg width="69" height="69" viewBox="0 0 69 69" fill="none" xmlns="http://www.w3.org/2000/svg">
<path d="M1.15845 64.4955L18.751 16.1234C18.9006 15.7101 19.1522 15.3414 19.4823 15.0513C19.8125 14.7611 20.2105 14.5591 20.6396 14.4639C21.0686 14.3686 21.5148 14.3833 21.9367 14.5065C22.3585 14.6297 22.7425 14.8574 23.0529 15.1686L53.8357 45.9514C54.146 46.2621 54.3729 46.646 54.4954 47.0677C54.6179 47.4893 54.6321 47.9351 54.5365 48.3637C54.441 48.7923 54.2389 49.1898 53.9489 49.5195C53.6589 49.8492 53.2904 50.1004 52.8775 50.2499L4.50543 67.8425C4.03829 68.0131 3.53212 68.0468 3.04652 67.9394C2.56091 67.832 2.11609 67.5882 1.76442 67.2365C1.41276 66.8848 1.16889 66.44 1.06153 65.9544C0.954178 65.4688 0.987801 64.9626 1.15845 64.4955Z" fill="#D1A97A" stroke="#D1A97A" stroke-width="1.51699" stroke-linecap="round" stroke-linejoin="round"/>
<path d="M43.8779 19.7618C43.8779 19.7618 43.8779 11.721 51.9187 11.721C59.9595 11.721 59.9595 3.68018 59.9595 3.68018" stroke="#D1A97A" stroke-width="1.51699" stroke-linecap="round" stroke-linejoin="round"/>
<path d="M35.8379 1V9.0408" stroke="#D1A97A" stroke-width="1.51699" stroke-linecap="round" stroke-linejoin="round"/>
<path d="M59.96 33.1631L65.3205 38.5236" stroke="#D1A97A" stroke-width="1.51699" stroke-linecap="round" stroke-linejoin="round"/>
<path d="M59.96 22.4422L68.0008 19.762" stroke="#D1A97A" stroke-width="1.51699" stroke-linecap="round" stroke-linejoin="round"/>
<path d="M15.8887 33.5696L35.4304 53.1113" stroke="#1B2429" stroke-width="1.51699" stroke-linecap="round" stroke-linejoin="round"/>
<path d="M21.4724 57.764L11.2363 47.5278" stroke="#1B2429" stroke-width="1.51699" stroke-linecap="round" stroke-linejoin="round"/>
</svg>
