<svg width="50" height="50" viewBox="0 0 50 50" fill="none" xmlns="http://www.w3.org/2000/svg">
<path d="M32.6923 25C32.6923 26.5214 32.2412 28.0086 31.3959 29.2736C30.5507 30.5386 29.3493 31.5246 27.9437 32.1068C26.5381 32.689 24.9915 32.8413 23.4993 32.5445C22.0071 32.2477 20.6365 31.5151 19.5607 30.4393C18.4849 29.3635 17.7523 27.9929 17.4555 26.5007C17.1587 25.0085 17.311 23.4619 17.8932 22.0563C18.4754 20.6507 19.4614 19.4493 20.7264 18.6041C21.9914 17.7588 23.4786 17.3077 25 17.3077C27.0401 17.3077 28.9967 18.1181 30.4393 19.5607C31.8819 21.0033 32.6923 22.9599 32.6923 25ZM50 13.4615V36.5385C49.9962 40.1075 48.5767 43.5293 46.053 46.053C43.5293 48.5767 40.1075 49.9962 36.5385 50H13.4615C9.89249 49.9962 6.47071 48.5767 3.94701 46.053C1.42331 43.5293 0.00381785 40.1075 0 36.5385V13.4615C0.00381785 9.89249 1.42331 6.47071 3.94701 3.94701C6.47071 1.42331 9.89249 0.00381785 13.4615 0H36.5385C40.1075 0.00381785 43.5293 1.42331 46.053 3.94701C48.5767 6.47071 49.9962 9.89249 50 13.4615ZM36.5385 25C36.5385 22.7179 35.8617 20.4871 34.5939 18.5896C33.326 16.6921 31.524 15.2132 29.4156 14.3399C27.3072 13.4665 24.9872 13.238 22.749 13.6832C20.5107 14.1285 18.4548 15.2274 16.8411 16.8411C15.2274 18.4548 14.1285 20.5107 13.6832 22.749C13.238 24.9872 13.4665 27.3072 14.3399 29.4156C15.2132 31.524 16.6921 33.326 18.5896 34.5939C20.4871 35.8617 22.7179 36.5385 25 36.5385C28.0592 36.5353 30.9922 35.3186 33.1554 33.1554C35.3186 30.9922 36.5353 28.0592 36.5385 25ZM42.3077 10.5769C42.3077 10.0064 42.1385 9.44869 41.8215 8.97432C41.5046 8.49994 41.0541 8.13022 40.527 7.91189C39.9999 7.69356 39.4199 7.63643 38.8603 7.74773C38.3008 7.85904 37.7868 8.13377 37.3833 8.53719C36.9799 8.94061 36.7052 9.4546 36.5939 10.0142C36.4826 10.5737 36.5397 11.1537 36.758 11.6808C36.9764 12.2079 37.3461 12.6584 37.8205 12.9754C38.2948 13.2924 38.8526 13.4615 39.4231 13.4615C40.1881 13.4615 40.9218 13.1576 41.4628 12.6167C42.0038 12.0757 42.3077 11.342 42.3077 10.5769Z" fill="#D1A97A"/>
</svg>
