<svg width="24" height="30" viewBox="0 0 24 30" fill="none" xmlns="http://www.w3.org/2000/svg">
<path d="M11.7687 16.159C14.1478 16.159 16.0764 14.2303 16.0764 11.8512C16.0764 9.4721 14.1478 7.54346 11.7687 7.54346C9.38958 7.54346 7.46094 9.4721 7.46094 11.8512C7.46094 14.2303 9.38958 16.159 11.7687 16.159Z" stroke="white" stroke-width="1.5" stroke-linecap="round" stroke-linejoin="round"/>
<path d="M22.5388 11.8514C22.5388 21.5439 11.7694 29.0824 11.7694 29.0824C11.7694 29.0824 1 21.5439 1 11.8514C1 8.99519 2.13463 6.25596 4.15428 4.23631C6.17393 2.21666 8.91316 1.08203 11.7694 1.08203C14.6256 1.08203 17.3648 2.21666 19.3845 4.23631C21.4041 6.25596 22.5388 8.99519 22.5388 11.8514Z" stroke="white" stroke-width="1.5" stroke-linecap="round" stroke-linejoin="round"/>
</svg>
