<svg width="147" height="41" viewBox="0 0 147 41" fill="none" xmlns="http://www.w3.org/2000/svg">
<path d="M18.1624 40.2327H5.09766L18.1624 20.4761H31.2274L18.1624 40.2327Z" fill="white"/>
<path d="M13.3835 0.0820312H26.7669L13.3835 20.4758H0L13.3835 0.0820312Z" fill="white"/>
<path d="M57.8818 17.2686C57.8818 18.48 57.5897 19.616 57.0054 20.6763C56.443 21.7362 55.5452 22.5908 54.312 23.24C53.1003 23.8889 51.5644 24.2135 49.7038 24.2135H45.9065V32.9108H41.3633V10.2588H49.7038C51.4562 10.2588 52.9489 10.5617 54.182 11.1675C55.4155 11.7733 56.3347 12.6062 56.9408 13.6663C57.5682 14.7264 57.8818 15.9272 57.8818 17.2686ZM49.5088 20.5463C50.7637 20.5463 51.694 20.2652 52.3 19.7024C52.9057 19.1185 53.2085 18.3072 53.2085 17.2686C53.2085 15.0618 51.9754 13.9584 49.5088 13.9584H45.9065V20.5463H49.5088Z" fill="white"/>
<path d="M64.3518 17.7234C64.9361 16.7715 65.6932 16.025 66.6235 15.4842C67.5756 14.9433 68.6573 14.6729 69.869 14.6729V19.4433H68.668C67.2402 19.4433 66.1585 19.7786 65.4228 20.4496C64.709 21.1203 64.3518 22.2884 64.3518 23.9544V32.9113H59.8086V14.9325H64.3518V17.7234Z" fill="white"/>
<path d="M79.6145 33.2034C77.8835 33.2034 76.3258 32.8248 74.9412 32.0678C73.5567 31.2889 72.4639 30.1961 71.6636 28.7898C70.8847 27.3834 70.4951 25.761 70.4951 23.9219C70.4951 22.0831 70.8954 20.4603 71.6961 19.054C72.5182 17.6477 73.6324 16.5659 75.0387 15.8087C76.4451 15.0298 78.0135 14.6404 79.7445 14.6404C81.4751 14.6404 83.0435 15.0298 84.4499 15.8087C85.8562 16.5659 86.9597 17.6477 87.7604 19.054C88.5825 20.4603 88.9935 22.0831 88.9935 23.9219C88.9935 25.761 88.5714 27.3834 87.7279 28.7898C86.9054 30.1961 85.7805 31.2889 84.3527 32.0678C82.9464 32.8248 81.3669 33.2034 79.6145 33.2034ZM79.6145 29.244C80.4366 29.244 81.2047 29.0494 81.9186 28.6601C82.6543 28.2491 83.2385 27.6431 83.671 26.8428C84.1038 26.0421 84.3202 25.0686 84.3202 23.9219C84.3202 22.2127 83.866 20.9039 82.9571 19.995C82.07 19.0647 80.9776 18.5998 79.6795 18.5998C78.3814 18.5998 77.2886 19.0647 76.4019 19.995C75.5362 20.9039 75.1037 22.2127 75.1037 23.9219C75.1037 25.631 75.5255 26.951 76.3694 27.8813C77.2347 28.7898 78.3164 29.244 79.6145 29.244Z" fill="white"/>
<path d="M95.5706 29.309H100.45V32.9112H91.0273V7.46826H95.5706V29.309Z" fill="white"/>
<path d="M103.975 12.7905C103.175 12.7905 102.504 12.5417 101.963 12.0441C101.444 11.5249 101.185 10.8866 101.185 10.1294C101.185 9.37217 101.444 8.74475 101.963 8.24714C102.504 7.72789 103.175 7.46826 103.975 7.46826C104.776 7.46826 105.436 7.72789 105.955 8.24714C106.496 8.74475 106.766 9.37217 106.766 10.1294C106.766 10.8866 106.496 11.5249 105.955 12.0441C105.436 12.5417 104.776 12.7905 103.975 12.7905ZM106.215 14.9324V32.9112H101.671V14.9324H106.215Z" fill="white"/>
<path d="M119.369 14.6729C121.51 14.6729 123.241 15.3544 124.561 16.7174C125.881 18.0588 126.541 19.9411 126.541 22.3641V32.9113H121.997V22.9809C121.997 21.5528 121.64 20.4603 120.926 19.7029C120.212 18.924 119.239 18.5348 118.005 18.5348C116.75 18.5348 115.755 18.924 115.02 19.7029C114.306 20.4603 113.949 21.5528 113.949 22.9809V32.9113H109.405V14.9325H113.949V17.1717C114.555 16.3928 115.323 15.7871 116.253 15.3544C117.205 14.9 118.243 14.6729 119.369 14.6729Z" fill="white"/>
<path d="M146.276 23.5326C146.276 24.1815 146.233 24.7658 146.147 25.285H133.003C133.111 26.5831 133.566 27.5998 134.366 28.3355C135.167 29.0712 136.151 29.439 137.319 29.439C139.007 29.439 140.208 28.7141 140.922 27.2645H145.822C145.303 28.9955 144.307 30.4232 142.836 31.5485C141.365 32.6516 139.558 33.2034 137.416 33.2034C135.686 33.2034 134.128 32.8248 132.744 32.0678C131.38 31.2889 130.309 30.1961 129.531 28.7898C128.773 27.3834 128.395 25.761 128.395 23.9219C128.395 22.0613 128.773 20.4278 129.531 19.0215C130.288 17.6152 131.348 16.5335 132.711 15.7762C134.074 15.019 135.643 14.6404 137.416 14.6404C139.126 14.6404 140.651 15.0082 141.993 15.7438C143.355 16.4794 144.405 17.5287 145.141 18.8919C145.898 20.2332 146.276 21.7799 146.276 23.5326ZM141.57 22.2345C141.549 21.066 141.127 20.1357 140.305 19.4433C139.483 18.7294 138.477 18.3726 137.287 18.3726C136.162 18.3726 135.21 18.7187 134.431 19.4111C133.674 20.0818 133.208 21.0228 133.035 22.2345H141.57Z" fill="white"/>
</svg>
