<svg width="119" height="32" viewBox="0 0 119 32" fill="none" xmlns="http://www.w3.org/2000/svg">
<path fill-rule="evenodd" clip-rule="evenodd" d="M23.4929 5.56346H10.5723V0.0820312H28.9742V18.4839H23.4929V5.56346Z" fill="white"/>
<path fill-rule="evenodd" clip-rule="evenodd" d="M13.3991 16.4706C12.5621 15.9113 11.578 15.6127 10.5713 15.6127V10.1313C12.6621 10.1313 14.706 10.7513 16.4444 11.9129C18.1829 13.0745 19.5378 14.7255 20.338 16.6572C21.1381 18.589 21.3476 20.7144 20.9396 22.765C20.5317 24.8155 19.525 26.6993 18.0464 28.1776C16.5679 29.6562 14.6843 30.663 12.6337 31.0709C10.583 31.4788 8.4575 31.2694 6.52583 30.4692C4.59418 29.6691 2.94318 28.3143 1.78159 26.5757C0.619991 24.8372 0 22.7935 0 20.7025H5.48143C5.48143 21.7093 5.77995 22.6935 6.33924 23.5303C6.8985 24.3675 7.69344 25.02 8.62349 25.405C9.55357 25.7903 10.577 25.8913 11.5643 25.6947C12.5517 25.4984 13.4586 25.0137 14.1704 24.3016C14.8822 23.5899 15.367 22.6828 15.5634 21.6955C15.7598 20.7082 15.659 19.6848 15.2738 18.7548C14.8885 17.8248 14.2362 17.0298 13.3991 16.4706Z" fill="white"/>
<path d="M37.5859 26.98V3.98242H46.095C47.9349 3.98242 49.4571 4.28906 50.6617 4.90234C51.8663 5.51559 52.7643 6.35885 53.3556 7.43206C53.947 8.50527 54.2426 9.70991 54.2426 11.046C54.2426 12.3163 53.958 13.488 53.3886 14.5613C52.8189 15.6126 51.9319 16.4668 50.7273 17.1239C49.5226 17.759 47.9785 18.0766 46.095 18.0766H41.7911V26.98H37.5859ZM41.7911 14.6598H45.832C47.2997 14.6598 48.351 14.3423 48.9862 13.7071C49.643 13.05 49.9716 12.163 49.9716 11.046C49.9716 9.90704 49.643 9.01998 48.9862 8.38481C48.351 7.72773 47.2997 7.3992 45.832 7.3992H41.7911V14.6598Z" fill="white"/>
<path d="M62.8847 27.3741C61.242 27.3741 59.7857 27.0236 58.5152 26.3228C57.2448 25.6221 56.2483 24.6363 55.5256 23.3659C54.8029 22.0957 54.4414 20.6284 54.4414 18.9638C54.4414 17.2772 54.7919 15.7768 55.4927 14.4627C56.2154 13.1486 57.2012 12.1301 58.4497 11.4073C59.7198 10.6626 61.2091 10.2903 62.9176 10.2903C64.5166 10.2903 65.9291 10.6407 67.1557 11.3416C68.3823 12.0425 69.3351 13.0062 70.0139 14.2327C70.715 15.4374 71.0652 16.7843 71.0652 18.2737C71.0652 18.5145 71.0542 18.7666 71.0326 19.0293C71.0326 19.2921 71.0216 19.5661 70.9997 19.8508H58.6137C58.7015 21.1209 59.1395 22.1177 59.928 22.8404C60.7382 23.5631 61.713 23.9246 62.8521 23.9246C63.7061 23.9246 64.4179 23.7383 64.9873 23.3659C65.5789 22.9717 66.0169 22.4679 66.3016 21.8546H70.5726C70.266 22.8843 69.7512 23.8258 69.0285 24.6802C68.3274 25.5123 67.4514 26.1695 66.4001 26.6514C65.3707 27.1333 64.199 27.3741 62.8847 27.3741ZM62.9176 13.7071C61.8883 13.7071 60.9793 14.0027 60.1908 14.5941C59.4022 15.1636 58.8987 16.0397 58.6795 17.2224H66.7945C66.7287 16.1492 66.3345 15.295 65.6115 14.6598C64.8888 14.0246 63.9908 13.7071 62.9176 13.7071Z" fill="white"/>
<path d="M72.959 26.98V10.6845H76.6713L76.9999 13.4442C77.5037 12.4805 78.2264 11.7139 79.1683 11.1445C80.1318 10.575 81.2599 10.2903 82.552 10.2903C84.5671 10.2903 86.1332 10.9254 87.25 12.1958C88.3672 13.4661 88.9256 15.3278 88.9256 17.7809V26.98H84.7204V18.1752C84.7204 16.7734 84.4357 15.7002 83.8663 14.9555C83.297 14.2108 82.4096 13.8385 81.205 13.8385C80.0224 13.8385 79.0479 14.2546 78.2813 15.0869C77.5366 15.9192 77.1642 17.08 77.1642 18.5693V26.98H72.959Z" fill="white"/>
<path d="M98.5666 26.9799C96.8582 26.9799 95.4893 26.5635 94.4599 25.7314C93.4306 24.899 92.9157 23.4206 92.9157 21.2961V14.1998H90.123V10.6844H92.9157L93.4086 6.31494H97.1209V10.6844H101.523V14.1998H97.1209V21.329C97.1209 22.1176 97.2852 22.665 97.6138 22.9717C97.9643 23.2563 98.5556 23.3987 99.3878 23.3987H101.425V26.9799H98.5666Z" fill="white"/>
<path d="M109.109 27.3741C107.707 27.3741 106.557 27.155 105.659 26.7169C104.761 26.257 104.093 25.6547 103.655 24.91C103.217 24.1654 102.998 23.3442 102.998 22.4462C102.998 20.935 103.589 19.7084 104.772 18.7666C105.955 17.8247 107.729 17.3538 110.094 17.3538H114.234V16.9595C114.234 15.8425 113.916 15.0212 113.281 14.4955C112.646 13.9699 111.857 13.7071 110.916 13.7071C110.061 13.7071 109.317 13.9151 108.682 14.3313C108.047 14.7255 107.652 15.3169 107.499 16.1054H103.392C103.502 14.9227 103.896 13.8932 104.575 13.0172C105.276 12.141 106.174 11.473 107.269 11.0131C108.364 10.5312 109.59 10.2903 110.948 10.2903C113.27 10.2903 115.099 10.8707 116.435 12.0315C117.771 13.1924 118.439 14.835 118.439 16.9595V26.98H114.858L114.464 24.3516C113.982 25.2276 113.303 25.9503 112.427 26.52C111.573 27.0894 110.467 27.3741 109.109 27.3741ZM110.061 24.0889C111.266 24.0889 112.197 23.6944 112.854 22.9062C113.533 22.1177 113.96 21.1429 114.135 19.9822H110.554C109.437 19.9822 108.638 20.19 108.156 20.6064C107.674 21.0005 107.433 21.4934 107.433 22.0847C107.433 22.72 107.674 23.2128 108.156 23.5631C108.638 23.9136 109.273 24.0889 110.061 24.0889Z" fill="white"/>
</svg>
