<svg width="177" height="38" viewBox="0 0 177 38" fill="none" xmlns="http://www.w3.org/2000/svg">
<path d="M0 24.8484L12.5489 19.2629L19.7718 23.4518L21.2309 37.1943L12.33 37.1211L13.6432 27.567L12.1111 26.6852L4.59636 32.5646L0 24.8484Z" fill="white"/>
<path d="M20.5742 22.864L31.6641 31.0211L36.0415 23.1579L27.1403 19.5569V17.7932L36.0415 14.1187L31.6641 6.32886L20.5742 14.4862V22.864Z" fill="white"/>
<path d="M19.7718 13.8246L21.2309 0.0820312L12.33 0.229016L13.6432 9.78262L12.1111 10.6645L4.52341 4.78536L0 12.4283L12.5489 18.0135L19.7718 13.8246Z" fill="white"/>
<path d="M65.7368 16.9919V29.8669H70.5271V13.459H63.5508V16.9919H65.7368Z" fill="white"/>
<path d="M65.5876 11.1532C66.0268 11.6122 66.6954 11.8417 67.5935 11.8417C68.4922 11.8417 69.1504 11.6122 69.5693 11.1532C70.009 10.6739 70.2281 10.0751 70.2281 9.35667C70.2281 8.61804 70.009 8.01921 69.5693 7.56021C69.1504 7.08117 68.4922 6.84155 67.5935 6.84155C66.6954 6.84155 66.0268 7.08117 65.5876 7.56021C65.1687 8.01921 64.959 8.61804 64.959 9.35667C64.959 10.0751 65.1687 10.6739 65.5876 11.1532Z" fill="white"/>
<path d="M49.0598 29.5068C50.4169 30.1256 52.0836 30.4352 54.0594 30.4352C55.916 30.4352 57.5125 30.1453 58.8503 29.5667C60.1876 28.9881 61.2153 28.1794 61.9339 27.1413C62.6728 26.0835 63.0418 24.8559 63.0418 23.4586C63.0418 22.1014 62.6931 20.9537 61.9943 20.0154C61.3152 19.0574 60.3676 18.3089 59.1495 17.77C57.9319 17.211 56.5248 16.8617 54.9279 16.7221L53.2513 16.5724C52.2533 16.4924 51.5347 16.2231 51.0955 15.7638C50.6563 15.3048 50.4367 14.7658 50.4367 14.1472C50.4367 13.6679 50.5569 13.2289 50.7958 12.8297C51.0356 12.4105 51.3947 12.0812 51.8739 11.8416C52.3729 11.6022 52.9818 11.4824 53.7004 11.4824C54.4585 11.4824 55.0876 11.6219 55.5866 11.9016C55.6964 11.9606 55.8008 12.0238 55.8987 12.0908L55.9225 12.1074C55.9591 12.1328 55.9952 12.1591 56.0303 12.1856C56.3334 12.4172 56.5748 12.6918 56.7543 13.0093C57.0135 13.4486 57.144 13.9374 57.144 14.4765H61.9339C61.9339 13.0392 61.6045 11.7917 60.9463 10.7338C60.2875 9.65596 59.3394 8.82766 58.102 8.24857C56.8839 7.64975 55.417 7.35034 53.7004 7.35034C52.0634 7.35034 50.6464 7.62997 49.4486 8.18878C48.2512 8.72786 47.313 9.50626 46.6345 10.5241C45.9752 11.5421 45.6459 12.7499 45.6459 14.1472C45.6459 16.0833 46.2952 17.6401 47.5925 18.818C48.8897 19.9956 50.6266 20.6743 52.8022 20.8539L54.4491 21.0036C55.786 21.1234 56.7543 21.3929 57.3532 21.8119C57.9517 22.2111 58.2514 22.76 58.2514 23.4586C58.2514 23.7798 58.199 24.0809 58.0936 24.3622C58.0155 24.5711 57.9086 24.7689 57.7726 24.9558C57.4526 25.3747 56.9838 25.7041 56.3651 25.944C55.7464 26.1834 54.9778 26.303 54.0594 26.303C53.0416 26.303 52.2132 26.1636 51.5747 25.8837C50.9357 25.5844 50.457 25.1952 50.137 24.7165C49.8378 24.2371 49.6884 23.7183 49.6884 23.1592H44.9277C44.9277 24.5765 45.2769 25.8342 45.9752 26.9316C46.6741 28.0098 47.7023 28.8684 49.0598 29.5068Z" fill="white"/>
<path d="M81.2165 30.0752C79.5597 30.0752 78.2224 29.8759 77.2046 29.4763C76.1863 29.0574 75.438 28.3684 74.9588 27.4105C74.4998 26.4322 74.2704 25.1152 74.2704 23.4582V16.961H71.7852V13.458H74.2704V9.02686H78.7314V13.458H83.5222V16.961H78.7314V23.6381C78.7314 24.4165 78.9312 25.0153 79.3303 25.4342C79.7492 25.8338 80.3382 26.0331 81.0969 26.0331H83.5222V30.0752H81.2165Z" fill="white"/>
<path fill-rule="evenodd" clip-rule="evenodd" d="M89.2893 29.7165C90.367 30.1952 91.6049 30.4351 93.002 30.4351C94.3789 30.4351 95.597 30.1952 96.6549 29.7165C97.7128 29.2372 98.5911 28.5686 99.2895 27.7105C99.9883 26.8519 100.458 25.8737 100.696 24.7762H96.2953C96.096 25.2752 95.7167 25.6941 95.1578 26.0334C94.599 26.3727 93.8799 26.5428 93.002 26.5428C92.458 26.5428 91.9718 26.478 91.5435 26.3494C91.2176 26.2515 90.9253 26.1165 90.6667 25.9439C90.0678 25.5448 89.6286 24.9854 89.3491 24.2671C89.2715 24.0625 89.2052 23.8484 89.1493 23.6254C89.0925 23.3995 89.0465 23.1645 89.0118 22.9198H100.996V21.3029C100.996 19.8058 100.677 18.4286 100.038 17.1711C99.3992 15.8935 98.4709 14.8655 97.2538 14.087C96.056 13.2886 94.5787 12.8894 92.822 12.8894C91.4847 12.8894 90.2868 13.129 89.229 13.6081C88.1919 14.0671 87.3234 14.6958 86.6246 15.4942C85.9262 16.2927 85.3872 17.201 85.0073 18.2191C84.6483 19.2169 84.4688 20.2648 84.4688 21.3627V21.9615C84.4688 23.0196 84.6483 24.0574 85.0073 25.0754C85.3872 26.0735 85.9262 26.9815 86.6246 27.8C87.3432 28.5987 88.2309 29.2372 89.2893 29.7165ZM89.0944 19.9591C89.1078 19.8957 89.1216 19.8333 89.137 19.7719C89.1785 19.6026 89.2265 19.4403 89.2809 19.2853C89.3116 19.1971 89.3442 19.1111 89.3793 19.0274C89.6785 18.2887 90.1177 17.7299 90.6963 17.3507C90.913 17.209 91.1474 17.0937 91.3991 17.005C91.8225 16.8563 92.2973 16.7818 92.822 16.7818C93.641 16.7818 94.319 16.9715 94.8581 17.3507C95.417 17.71 95.8364 18.2388 96.1158 18.9375C96.1386 18.9939 96.1598 19.0513 96.1806 19.1094C96.2137 19.2019 96.2444 19.2969 96.2731 19.3943C96.3151 19.5392 96.3522 19.6892 96.3849 19.8442C96.4086 19.9584 96.4289 20.0754 96.4472 20.1952H89.0484C89.0623 20.1151 89.0776 20.0365 89.0944 19.9591Z" fill="white"/>
<path d="M102.973 29.8663V13.4584H106.775V17.5909C106.827 17.3452 106.886 17.1094 106.951 16.8833C107.008 16.6928 107.068 16.5092 107.134 16.3327C107.554 15.2148 108.182 14.3766 109.021 13.8176C109.859 13.2387 110.887 12.9495 112.105 12.9495H112.314C113.552 12.9495 114.58 13.2387 115.398 13.8176C116.236 14.3766 116.866 15.2148 117.284 16.3327L117.318 16.4171L117.346 16.4942C117.365 16.4397 117.384 16.386 117.404 16.3327C117.843 15.2148 118.482 14.3766 119.321 13.8176C120.159 13.2387 121.187 12.9495 122.405 12.9495H122.614C123.851 12.9495 124.889 13.2387 125.728 13.8176C126.586 14.3766 127.235 15.2148 127.674 16.3327C128.113 17.4506 128.333 18.8478 128.333 20.5245V29.8663H123.542V20.255C123.542 19.3567 123.303 18.6282 122.824 18.0694C122.365 17.5103 121.706 17.2309 120.848 17.2309C119.989 17.2309 119.311 17.5205 118.812 18.0993C118.313 18.6581 118.063 19.4066 118.063 20.3449V29.8663H113.242V20.255C113.242 19.3567 113.003 18.6282 112.524 18.0694C112.065 17.5103 111.416 17.2309 110.578 17.2309C109.699 17.2309 109.011 17.5205 108.512 18.0993C108.013 18.6581 107.763 19.4066 107.763 20.3449V29.8663H102.973Z" fill="white"/>
<path fill-rule="evenodd" clip-rule="evenodd" d="M141.131 26.7044V29.8662H144.933V19.8057C144.933 18.2886 144.634 17.0512 144.035 16.093C143.436 15.1149 142.558 14.3864 141.4 13.9074C140.263 13.4283 138.855 13.1887 137.179 13.1887C136.815 13.1887 136.436 13.1926 136.04 13.2005C135.807 13.2054 135.567 13.2114 135.322 13.2186C134.663 13.2386 134.024 13.2685 133.406 13.3086L132.933 13.3404C132.69 13.3572 132.462 13.3739 132.248 13.3908C132.087 13.4033 131.934 13.4158 131.789 13.4283V17.4704C132.408 17.4304 133.096 17.3904 133.855 17.3507C134.067 17.3395 134.277 17.3292 134.486 17.3195C134.788 17.3055 135.085 17.2935 135.379 17.2829C135.612 17.2744 135.842 17.267 136.071 17.2607C136.789 17.2407 137.368 17.2308 137.807 17.2308C138.686 17.2308 139.324 17.4403 139.724 17.8596C140.123 18.2788 140.322 18.9075 140.322 19.7459V19.8057H137.358C135.901 19.8057 134.614 19.9954 133.496 20.3747C132.378 20.7339 131.509 21.3028 130.891 22.0812C130.272 22.8399 129.963 23.8179 129.963 25.0155C129.963 26.1134 130.212 27.0615 130.711 27.8603C131.21 28.6382 131.899 29.2371 132.777 29.656C133.676 30.0754 134.714 30.2851 135.891 30.2851C137.029 30.2851 137.987 30.0754 138.766 29.656C139.564 29.2371 140.183 28.6382 140.622 27.8603C140.699 27.7287 140.771 27.5927 140.838 27.4512C140.933 27.2514 141.018 27.0413 141.093 26.8207L141.131 26.7044ZM140.322 23.788V22.4706H137.328C136.49 22.4706 135.841 22.6801 135.382 23.0993C134.943 23.4985 134.723 24.0474 134.723 24.746C134.723 25.0749 134.778 25.3736 134.887 25.6431C134.998 25.9131 135.162 26.153 135.382 26.3627C135.841 26.7623 136.49 26.9616 137.328 26.9616C137.488 26.9616 137.642 26.9537 137.791 26.9384C137.913 26.9255 138.031 26.9072 138.145 26.884C138.365 26.8395 138.572 26.7752 138.766 26.6921C139.205 26.4928 139.564 26.1634 139.843 25.7039C140.123 25.245 140.283 24.606 140.322 23.788Z" fill="white"/>
<path d="M147.799 29.8662V13.4583H151.602V18.874C151.784 17.328 152.243 16.0814 152.979 15.135C153.977 13.8775 155.414 13.2488 157.291 13.2488H157.919V17.3805H156.721C155.404 17.3805 154.386 17.7397 153.667 18.4584C152.949 19.157 152.589 20.1751 152.589 21.5123V29.8662H147.799Z" fill="white"/>
<path d="M163.994 22.2013H165.581L170.76 29.8665H176.149L169.582 20.4528L174.982 13.4585H169.952L163.994 21.2602V8.00928H159.203V29.8665H163.994V22.2013Z" fill="white"/>
</svg>
