<svg width="163" height="27" viewBox="0 0 163 27" fill="none" xmlns="http://www.w3.org/2000/svg">
<path fill-rule="evenodd" clip-rule="evenodd" d="M16.4435 0.742432C13.8488 0.742432 11.7453 2.84585 11.7453 5.44057C11.7453 8.03526 13.8488 10.1387 16.4435 10.1387C19.0383 10.1387 21.1416 8.03526 21.1416 5.44057C21.1416 2.84585 19.0383 0.742432 16.4435 0.742432ZM7.25757 9.88233C12.1481 9.88233 16.1126 13.8469 16.1126 18.7374V25.9949H11.7081V18.7374C11.7081 18.2165 11.6186 17.7168 11.4542 17.2522L4.98464 23.7219L1.87018 20.6073L8.10922 14.3682C7.83356 14.3148 7.54882 14.2868 7.25757 14.2868H0V9.88233H7.25757ZM25.739 9.88233C20.8486 9.88233 16.8839 13.8469 16.8839 18.7374V25.9949H21.2884V18.7374C21.2884 18.3293 21.3433 17.9344 21.4461 17.5588L28.2138 24.3265L31.3284 21.2122L24.5607 14.4445C24.9359 14.3417 25.3312 14.2868 25.739 14.2868H32.9965V9.88233H25.739Z" fill="white"/>
<path d="M40.0449 26.2488V0.932129H47.2149L54.9022 22.6268H55.4566V0.932129H59.5589V26.2488H52.537L44.6647 4.5171H44.1473V26.2488H40.0449Z" fill="white"/>
<path d="M75.9934 22.9229L77.0282 22.8119L77.1022 25.8055C74.2933 26.3722 71.8047 26.6556 69.6366 26.6556C66.9016 26.6556 64.9305 25.9042 63.7234 24.401C62.5406 22.8982 61.9492 20.4957 61.9492 17.1941C61.9492 10.6403 64.6225 7.36328 69.9692 7.36328C75.1434 7.36328 77.7306 10.1845 77.7306 15.8267L77.4719 18.7095H66.0146C66.0392 20.237 66.3719 21.3581 67.0126 22.0728C67.6531 22.7872 68.8481 23.1446 70.5976 23.1446C72.3468 23.1446 74.1456 23.0706 75.9934 22.9229ZM73.7759 15.605C73.7759 13.7817 73.4802 12.5128 72.8888 11.7983C72.3224 11.0591 71.349 10.6896 69.9692 10.6896C68.5895 10.6896 67.5793 11.0715 66.9386 11.8353C66.3226 12.5991 66.0022 13.8557 65.9779 15.605H73.7759Z" fill="white"/>
<path d="M89.6975 11.2065H84.5971V19.3375C84.5971 20.8403 84.7081 21.8383 84.9298 22.3311C85.1515 22.8238 85.7182 23.0701 86.6299 23.0701L89.6605 22.9594L89.8452 26.1747C88.1944 26.4951 86.938 26.6551 86.0756 26.6551C83.9814 26.6551 82.5399 26.1747 81.7515 25.2137C80.9875 24.2529 80.6057 22.4418 80.6057 19.7809V11.2065H78.2402V7.76939H80.6057V2.4104H84.5971V7.76939H89.6975V11.2065Z" fill="white"/>
<path d="M89.7129 7.76978H93.6676L96.5871 22.8118H97.3262L100.837 8.13934H104.977L108.488 22.8118H109.227L112.11 7.76978H116.101L112.183 26.2491H105.79L102.907 13.5722L100.024 26.2491H93.6306L89.7129 7.76978Z" fill="white"/>
<path d="M118.672 9.76534C119.953 8.16381 122.072 7.36304 125.029 7.36304C127.985 7.36304 130.092 8.16381 131.349 9.76534C132.63 11.3669 133.271 13.7692 133.271 16.9722C133.271 20.1754 132.654 22.59 131.422 24.2161C130.191 25.8422 128.059 26.6553 125.029 26.6553C121.998 26.6553 119.867 25.8422 118.635 24.2161C117.403 22.59 116.787 20.1754 116.787 16.9722C116.787 13.7692 117.415 11.3669 118.672 9.76534ZM121.703 21.7769C122.269 22.7623 123.378 23.255 125.029 23.255C126.68 23.255 127.788 22.7623 128.355 21.7769C128.922 20.7912 129.205 19.1774 129.205 16.9352C129.205 14.6933 128.897 13.1039 128.281 12.1676C127.69 11.2314 126.606 10.7632 125.029 10.7632C123.452 10.7632 122.355 11.2314 121.74 12.1676C121.148 13.1039 120.852 14.6933 120.852 16.9352C120.852 19.1774 121.136 20.7912 121.703 21.7769Z" fill="white"/>
<path d="M135.424 26.2489V7.7696H139.415V9.98709C141.51 8.63195 143.604 7.75727 145.698 7.36304V11.3915C143.58 11.8104 141.768 12.3524 140.266 13.0177L139.452 13.3503V26.2489H135.424Z" fill="white"/>
<path d="M150.958 26.2487H146.93V0.0820312H150.958V15.1981L153.25 14.9764L157.611 7.76939H162.12L156.798 16.4176L162.415 26.2487H157.869L153.361 18.4504L150.958 18.7091V26.2487Z" fill="white"/>
</svg>
