<svg width="22" height="22" viewBox="0 0 22 22" fill="none" xmlns="http://www.w3.org/2000/svg">
<path d="M11 12.0312C11.5695 12.0312 12.0312 11.5695 12.0312 11C12.0312 10.4305 11.5695 9.96875 11 9.96875C10.4305 9.96875 9.96875 10.4305 9.96875 11C9.96875 11.5695 10.4305 12.0312 11 12.0312Z" fill="#D1A97A"/>
<path d="M7.21875 12.0312C7.78829 12.0312 8.25 11.5695 8.25 11C8.25 10.4305 7.78829 9.96875 7.21875 9.96875C6.64921 9.96875 6.1875 10.4305 6.1875 11C6.1875 11.5695 6.64921 12.0312 7.21875 12.0312Z" fill="#D1A97A"/>
<path d="M14.7812 12.0312C15.3508 12.0312 15.8125 11.5695 15.8125 11C15.8125 10.4305 15.3508 9.96875 14.7812 9.96875C14.2117 9.96875 13.75 10.4305 13.75 11C13.75 11.5695 14.2117 12.0312 14.7812 12.0312Z" fill="#D1A97A"/>
<path d="M6.8682 18.1423C8.60116 19.1453 10.6397 19.4838 12.6038 19.0947C14.5679 18.7056 16.3235 17.6156 17.5433 16.0277C18.763 14.4398 19.3636 12.4626 19.2332 10.4646C19.1028 8.46654 18.2502 6.58415 16.8344 5.16833C15.4186 3.75252 13.5362 2.89991 11.5381 2.76949C9.54013 2.63906 7.56287 3.23971 5.97501 4.45945C4.38714 5.67919 3.29706 7.43477 2.90799 9.39887C2.51892 11.363 2.85743 13.4015 3.86039 15.1345L2.78531 18.3443C2.74491 18.4654 2.73905 18.5954 2.76838 18.7197C2.79771 18.844 2.86107 18.9576 2.95136 19.0479C3.04166 19.1382 3.15531 19.2016 3.27959 19.2309C3.40387 19.2602 3.53386 19.2544 3.655 19.214L6.8682 18.1423Z" stroke="#D1A97A" stroke-width="1.5" stroke-linecap="round" stroke-linejoin="round"/>
</svg>
