<svg width="80" height="71" viewBox="0 0 80 71" fill="none" xmlns="http://www.w3.org/2000/svg">
<path d="M11.9888 51.964C11.3904 51.9508 10.8124 51.7439 10.3416 51.3744C9.8708 51.0048 9.53255 50.4925 9.37764 49.9144L6.15586 37.8905C6.00095 37.3124 6.03774 36.6996 6.26069 36.1442C6.48364 35.5887 6.88073 35.1206 7.39237 34.81L61.3429 1.0233C61.71 0.800447 62.1239 0.666128 62.5519 0.630976C62.9799 0.595825 63.4102 0.660806 63.8088 0.820773C64.2073 0.98074 64.5631 1.2313 64.8481 1.55261C65.133 1.87392 65.3392 2.25715 65.4503 2.67196L78.3374 50.7673C78.4486 51.1821 78.4616 51.6171 78.3755 52.0378C78.2894 52.4586 78.1066 52.8535 77.8414 53.1913C77.5763 53.5291 77.2361 53.8005 76.8478 53.9841C76.4596 54.1676 76.034 54.2583 75.6046 54.2488L11.9888 51.964Z" stroke="#D1A97A" stroke-width="1.14351" stroke-linecap="round" stroke-linejoin="round"/>
<path d="M24.3638 52.4068L27.5695 64.3705C27.7593 65.0792 28.223 65.6834 28.8583 66.0502C29.4937 66.417 30.2487 66.5164 30.9574 66.3265L41.6452 63.4627C42.3539 63.2729 42.9581 62.8092 43.3249 62.1739C43.6917 61.5385 43.7911 60.7835 43.6012 60.0748L32.6016 19.0234" stroke="#D1A97A" stroke-width="1.14351" stroke-linecap="round" stroke-linejoin="round"/>
</svg>
