<svg width="76" height="76" viewBox="0 0 76 76" fill="none" xmlns="http://www.w3.org/2000/svg">
<path d="M1.175 71.129L20.6056 17.7032C20.7708 17.2467 21.0486 16.8394 21.4133 16.519C21.7779 16.1986 22.2176 15.9754 22.6914 15.8702C23.1653 15.7651 23.6581 15.7813 24.124 15.9173C24.59 16.0534 25.0141 16.3049 25.3569 16.6486L59.3558 50.6475C59.6985 50.9906 59.9491 51.4147 60.0844 51.8804C60.2198 52.3461 60.2354 52.8384 60.1298 53.3118C60.0243 53.7851 59.8011 54.2242 59.4808 54.5884C59.1605 54.9525 58.7535 55.23 58.2975 55.3951L4.87166 74.8257C4.35572 75.0141 3.79667 75.0513 3.26033 74.9327C2.72399 74.8141 2.23269 74.5448 1.84429 74.1564C1.45588 73.768 1.18654 73.2767 1.06796 72.7403C0.94939 72.204 0.986527 71.6449 1.175 71.129Z" stroke="#D1A97A" stroke-width="1.51699" stroke-linecap="round" stroke-linejoin="round"/>
<path d="M48.3574 21.7219C48.3574 21.7219 48.3574 12.8411 57.2383 12.8411C66.1192 12.8411 66.1192 3.96021 66.1192 3.96021" stroke="#D1A97A" stroke-width="1.51699" stroke-linecap="round" stroke-linejoin="round"/>
<path d="M39.4766 1V9.88087" stroke="#D1A97A" stroke-width="1.51699" stroke-linecap="round" stroke-linejoin="round"/>
<path d="M66.1191 36.5234L72.0397 42.444" stroke="#D1A97A" stroke-width="1.51699" stroke-linecap="round" stroke-linejoin="round"/>
<path d="M66.1191 24.6825L75 21.7222" stroke="#D1A97A" stroke-width="1.51699" stroke-linecap="round" stroke-linejoin="round"/>
<path d="M15.0879 32.8562L43.144 60.9124" stroke="#D1A97A" stroke-width="1.51699" stroke-linecap="round" stroke-linejoin="round"/>
<path d="M23.6073 68.0172L7.98438 52.3943" stroke="#D1A97A" stroke-width="1.51699" stroke-linecap="round" stroke-linejoin="round"/>
</svg>
