<svg width="18" height="17" viewBox="0 0 18 17" fill="none" xmlns="http://www.w3.org/2000/svg">
<path d="M12.9048 1.70306C13.8538 1.70579 14.7631 2.06977 15.4342 2.71551C16.1052 3.36125 16.4835 4.23628 16.4863 5.14949V12.0416C16.4835 12.9548 16.1052 13.8299 15.4342 14.4756C14.7631 15.1213 13.8538 15.4853 12.9048 15.488H5.74245C4.79344 15.4853 3.8841 15.1213 3.21304 14.4756C2.54199 13.8299 2.16374 12.9548 2.1609 12.0416V5.14949C2.16374 4.23628 2.54199 3.36125 3.21304 2.71551C3.8841 2.06977 4.79344 1.70579 5.74245 1.70306H12.9048ZM12.9048 0.324707H5.74245C2.98473 0.324707 0.728516 2.4958 0.728516 5.14949V12.0416C0.728516 14.6953 2.98473 16.8664 5.74245 16.8664H12.9048C15.6625 16.8664 17.9187 14.6953 17.9187 12.0416V5.14949C17.9187 2.4958 15.6625 0.324707 12.9048 0.324707Z" fill="white"/>
<path d="M13.9785 5.14974C13.766 5.14974 13.5583 5.08911 13.3816 4.97551C13.2049 4.86191 13.0672 4.70044 12.9859 4.51153C12.9046 4.32261 12.8833 4.11474 12.9247 3.91419C12.9662 3.71364 13.0685 3.52943 13.2188 3.38484C13.369 3.24025 13.5605 3.14179 13.7689 3.1019C13.9773 3.06201 14.1933 3.08248 14.3896 3.16073C14.586 3.23898 14.7538 3.37149 14.8718 3.54151C14.9899 3.71152 15.0529 3.91141 15.0529 4.11589C15.0532 4.25174 15.0256 4.38631 14.9717 4.51187C14.9178 4.63744 14.8387 4.75152 14.7389 4.84759C14.639 4.94365 14.5205 5.01979 14.39 5.07164C14.2595 5.12349 14.1197 5.15004 13.9785 5.14974ZM9.32294 5.83873C9.88961 5.83873 10.4436 6.00043 10.9147 6.30338C11.3859 6.60634 11.7531 7.03693 11.97 7.54072C12.1869 8.04451 12.2436 8.59886 12.133 9.13368C12.0225 9.6685 11.7496 10.1598 11.3489 10.5453C10.9482 10.9309 10.4377 11.1935 9.8819 11.2999C9.32612 11.4063 8.75003 11.3517 8.22649 11.143C7.70295 10.9343 7.25547 10.581 6.94065 10.1276C6.62582 9.67415 6.45778 9.1411 6.45778 8.59581C6.45859 7.86482 6.76072 7.16401 7.29786 6.64713C7.83501 6.13024 8.5633 5.83952 9.32294 5.83873ZM9.32294 4.46038C8.47296 4.46038 7.64208 4.70292 6.93535 5.15733C6.22862 5.61173 5.67779 6.2576 5.35252 7.01325C5.02725 7.7689 4.94215 8.60039 5.10797 9.40259C5.27379 10.2048 5.68309 10.9416 6.28411 11.52C6.88514 12.0983 7.65089 12.4922 8.48453 12.6518C9.31817 12.8113 10.1823 12.7294 10.9675 12.4164C11.7528 12.1034 12.424 11.5734 12.8962 10.8933C13.3684 10.2133 13.6205 9.41371 13.6205 8.59581C13.6205 7.49902 13.1677 6.44716 12.3618 5.67162C11.5558 4.89608 10.4627 4.46038 9.32294 4.46038Z" fill="white"/>
</svg>
