<svg width="15" height="18" viewBox="0 0 15 18" fill="none" xmlns="http://www.w3.org/2000/svg">
<path d="M7.72674 9.72741C8.93173 9.72741 9.90856 8.75057 9.90856 7.54559C9.90856 6.3406 8.93173 5.36377 7.72674 5.36377C6.52176 5.36377 5.54492 6.3406 5.54492 7.54559C5.54492 8.75057 6.52176 9.72741 7.72674 9.72741Z" stroke="white" stroke-linecap="round" stroke-linejoin="round"/>
<path d="M14.2725 7.15385C14.2725 12.6923 7.72709 17 7.72709 17C7.72709 17 1.18164 12.6923 1.18164 7.15385C1.18164 5.52174 1.87125 3.95649 3.09876 2.80242C4.32627 1.64835 5.99113 1 7.72709 1C9.46306 1 11.1279 1.64835 12.3554 2.80242C13.5829 3.95649 14.2725 5.52174 14.2725 7.15385Z" stroke="white" stroke-linecap="round" stroke-linejoin="round"/>
</svg>
