<svg width="18" height="18" viewBox="0 0 18 18" fill="none" xmlns="http://www.w3.org/2000/svg">
<path d="M11.8168 10.8555C11.9131 10.7914 12.0239 10.7523 12.1392 10.7419C12.2544 10.7314 12.3705 10.7498 12.4768 10.7955L16.5777 12.6329C16.7159 12.692 16.8313 12.7943 16.9065 12.9244C16.9818 13.0545 17.0129 13.2055 16.9951 13.3547C16.86 14.3643 16.3629 15.2905 15.596 15.9611C14.8292 16.6316 13.845 17.0008 12.8264 17C9.68981 17 6.68173 15.754 4.46386 13.5361C2.24599 11.3183 1 8.31019 1 5.17365C0.999222 4.15502 1.36843 3.17078 2.03895 2.40396C2.70947 1.63715 3.63567 1.13996 4.6453 1.00486C4.79455 0.987128 4.94553 1.01821 5.07564 1.09345C5.20574 1.1687 5.30799 1.28405 5.36706 1.42226L7.20449 5.5267C7.24963 5.63212 7.26802 5.74706 7.258 5.8613C7.24799 5.97554 7.20989 6.08554 7.1471 6.1815L5.28879 8.39111C5.22287 8.49058 5.18389 8.60544 5.17566 8.72449C5.16743 8.84353 5.19023 8.96267 5.24183 9.07026C5.96098 10.5425 7.48275 12.046 8.95931 12.7582C9.06747 12.8095 9.18715 12.8318 9.30656 12.8228C9.42596 12.8138 9.54095 12.7739 9.64019 12.7069L11.8168 10.8555Z" stroke="white" stroke-linecap="round" stroke-linejoin="round"/>
</svg>
